STARTFONT 2.1
COMMENT
COMMENT Converted from OpenType font "truongsa_regular.ttf" by "otf2bdf 3.0".
COMMENT
FONT -FreeType-VPS Truong Sa Light Hoa-Medium-R-Normal--33-240-100-100-P-169-ISO10646-1
SIZE 24 100 100
FONTBOUNDINGBOX 32 46 -1 -8
STARTPROPERTIES 19
FOUNDRY "FreeType"
FAMILY_NAME "VPS Truong Sa Light Hoa"
WEIGHT_NAME "Medium"
SLANT "R"
SETWIDTH_NAME "Normal"
ADD_STYLE_NAME ""
PIXEL_SIZE 33
POINT_SIZE 240
RESOLUTION_X 100
RESOLUTION_Y 100
SPACING "P"
AVERAGE_WIDTH 169
CHARSET_REGISTRY "ISO10646"
CHARSET_ENCODING "1"
FONT_ASCENT 31
FONT_DESCENT 7
COPYRIGHT "VPS Font"
_OTF_FONTFILE "truongsa_regular.ttf"
_OTF_PSNAME "VPS Truong Sa Light Hoa"
ENDPROPERTIES
CHARS 270
STARTCHAR 0002
ENCODING 2
SWIDTH 630 0
DWIDTH 21 0
BBX 22 29 0 -4
BITMAP
003000
007800
007800
00DC00
00DC00
018E00
018E00
030F00
030700
070700
060380
060380
0C03C0
0C01C0
1FFFC0
1FFFE0
1800E0
3800E0
300070
300070
700070
700078
F800FC
FC00FC
000000
000000
00E000
00F000
006000
ENDCHAR
STARTCHAR 0003
ENCODING 3
SWIDTH 630 0
DWIDTH 21 0
BBX 22 37 0 -5
BITMAP
003000
007800
00FC00
00CC00
010200
020100
000000
000000
003000
007800
007800
00DC00
00DC00
018E00
018E00
030F00
030700
070700
060380
060380
0C03C0
0C01C0
1FFFC0
1FFFE0
1800E0
3800E0
300070
300070
700070
700078
F800FC
FC00FC
000000
000000
00E000
00F000
006000
ENDCHAR
STARTCHAR 0004
ENCODING 4
SWIDTH 630 0
DWIDTH 21 0
BBX 22 35 0 -5
BITMAP
020200
018C00
00F800
007000
000000
000000
003000
007800
007800
00DC00
00DC00
018E00
018E00
030F00
030700
070700
060380
060380
0C03C0
0C01C0
1FFFC0
1FFFE0
1800E0
3800E0
300070
300070
700070
700078
F800FC
FC00FC
000000
000000
00E000
00F000
006000
ENDCHAR
STARTCHAR 0005
ENCODING 5
SWIDTH 600 0
DWIDTH 20 0
BBX 19 29 1 -5
BITMAP
FFFFC0
7FFFC0
3801C0
380040
380000
380000
380000
380000
380000
380200
3FFF00
3FFF00
380200
380000
380000
380000
380000
380000
380000
380020
380060
3801E0
7FFFE0
FFFFC0
000000
000000
01C000
01E000
00C000
ENDCHAR
STARTCHAR 0006
ENCODING 6
SWIDTH 600 0
DWIDTH 20 0
BBX 19 38 1 -6
BITMAP
00E000
00F000
01B800
031800
020C00
040200
000000
000000
FFFFC0
7FFFC0
3801C0
380040
380000
380000
380000
380000
380000
380200
3FFF00
3FFF00
380200
380000
380000
380000
380000
380000
380000
380020
380060
3801E0
7FFFE0
FFFFC0
000000
000000
006000
00F000
00F000
006000
ENDCHAR
STARTCHAR 0015
ENCODING 21
SWIDTH 690 0
DWIDTH 23 0
BBX 24 36 1 -6
BITMAP
00001E
000011
000001
000001
000006
000008
FE01FC
FC00F8
380070
380070
380030
700030
700030
700030
700030
700030
700030
700030
700030
700030
700030
700030
700030
700030
380070
380060
3C00E0
1E01C0
0F8780
07FF00
00F800
000000
003000
007800
007800
003000
ENDCHAR
STARTCHAR 0019
ENCODING 25
SWIDTH 630 0
DWIDTH 21 0
BBX 23 29 -1 -5
BITMAP
FE007E
7E003C
3C0038
1C0038
0E0030
0F0060
070060
0380C0
03C180
01C180
00E300
00F600
007E00
003C00
003800
003800
003800
003800
003800
003800
003800
003C00
007E00
007E00
000000
000000
001C00
003C00
001C00
ENDCHAR
STARTCHAR 001C
ENCODING 28
SWIDTH 630 0
DWIDTH 21 0
BBX 22 36 0 0
BITMAP
00E200
01FE00
013C00
020000
003000
007800
00FC00
00CC00
010200
020100
000000
000000
003000
007800
007800
00DC00
00DC00
018E00
018E00
030F00
030700
070700
060380
060380
0C03C0
0C01C0
1FFFC0
1FFFE0
1800E0
3800E0
300070
300070
700070
700078
F800FC
FC00FC
ENDCHAR
STARTCHAR 001D
ENCODING 29
SWIDTH 690 0
DWIDTH 23 0
BBX 24 38 1 -1
BITMAP
000080
007900
00FF00
010C00
000000
000000
000000
00001E
000011
000001
000001
000006
000008
FE01FC
FC00F8
380070
380070
380030
700030
700030
700030
700030
700030
700030
700030
700030
700030
700030
700030
700030
700030
380070
380060
3C00E0
1E01C0
0F8780
07FF00
00F800
ENDCHAR
STARTCHAR 0020
ENCODING 32
SWIDTH 270 0
DWIDTH 9 0
BBX 0 0 0 0
BITMAP
ENDCHAR
STARTCHAR 0021
ENCODING 33
SWIDTH 270 0
DWIDTH 9 0
BBX 3 25 3 0
BITMAP
40
E0
E0
E0
E0
E0
E0
E0
E0
E0
E0
C0
C0
C0
C0
C0
40
40
40
00
00
00
E0
E0
E0
ENDCHAR
STARTCHAR 0022
ENCODING 34
SWIDTH 330 0
DWIDTH 11 0
BBX 9 10 1 14
BITMAP
6300
E380
6380
6300
6300
6300
6300
4100
4100
0100
ENDCHAR
STARTCHAR 0023
ENCODING 35
SWIDTH 750 0
DWIDTH 25 0
BBX 22 24 2 0
BITMAP
001870
003060
003060
0030E0
0060C0
0060C0
00E180
00C180
3FFFFC
3FFFF8
018300
018300
030600
030600
030E00
FFFFF0
060C00
061C00
0C1800
0C1800
0C3800
183000
183000
386000
ENDCHAR
STARTCHAR 0024
ENCODING 36
SWIDTH 540 0
DWIDTH 18 0
BBX 15 31 2 -4
BITMAP
0300
0300
0300
0FE0
3B70
6318
6318
6318
C300
E300
7300
7B00
3F00
1FC0
07E0
03F8
037C
031C
030E
030E
030E
C30E
C30C
E30C
7318
3FF0
0FC0
0300
0300
0300
0300
ENDCHAR
STARTCHAR 0025
ENCODING 37
SWIDTH 870 0
DWIDTH 29 0
BBX 25 26 2 -1
BITMAP
00001800
1FC03000
30FFF000
606F2000
60704000
E070C000
E0308000
E0718000
60710000
70630000
30E20000
1F860000
000C0000
00080000
0018FE00
0011C300
00338380
00230180
00630180
00C30180
00830180
01830180
01038380
03018300
0200FE00
06000000
ENDCHAR
STARTCHAR 0026
ENCODING 38
SWIDTH 750 0
DWIDTH 25 0
BBX 24 26 1 -1
BITMAP
004000
07F800
0E1C00
0C0E00
1C0600
1C0600
1C0E00
1C0C00
1C1C00
0E7000
0FE000
07C0FC
0F80FE
1FC078
31E070
70E060
E07060
E038C0
E03D80
E01F80
E00F00
E00F80
701FE0
3FF9FF
1FE0FE
030000
ENDCHAR
STARTCHAR 0027
ENCODING 39
SWIDTH 150 0
DWIDTH 5 0
BBX 3 9 1 14
BITMAP
60
E0
E0
60
60
60
60
40
40
ENDCHAR
STARTCHAR 0028
ENCODING 40
SWIDTH 300 0
DWIDTH 10 0
BBX 6 30 3 -6
BITMAP
0C
08
18
18
30
30
70
60
60
E0
E0
C0
C0
C0
C0
C0
C0
C0
C0
C0
E0
60
60
60
70
30
30
18
18
0C
ENDCHAR
STARTCHAR 0029
ENCODING 41
SWIDTH 300 0
DWIDTH 10 0
BBX 6 30 2 -6
BITMAP
C0
C0
60
60
30
30
38
18
18
18
1C
1C
0C
0C
0C
0C
0C
0C
0C
1C
1C
18
18
18
38
30
30
60
60
C0
ENDCHAR
STARTCHAR 002A
ENCODING 42
SWIDTH 480 0
DWIDTH 16 0
BBX 12 13 2 12
BITMAP
0700
0700
E630
F270
F2F0
0D00
0600
7DE0
F270
E670
0600
0700
0600
ENDCHAR
STARTCHAR 002B
ENCODING 43
SWIDTH 810 0
DWIDTH 27 0
BBX 20 20 4 0
BITMAP
006000
006000
006000
006000
006000
006000
006000
006000
006000
FFFFF0
FFFFF0
006000
006000
006000
006000
006000
006000
006000
006000
006000
ENDCHAR
STARTCHAR 002C
ENCODING 44
SWIDTH 270 0
DWIDTH 9 0
BBX 4 9 2 -6
BITMAP
70
F0
F0
10
10
10
20
60
40
ENDCHAR
STARTCHAR 002D
ENCODING 45
SWIDTH 300 0
DWIDTH 10 0
BBX 9 2 1 7
BITMAP
FF00
FF80
ENDCHAR
STARTCHAR 002E
ENCODING 46
SWIDTH 270 0
DWIDTH 9 0
BBX 3 3 3 0
BITMAP
E0
E0
E0
ENDCHAR
STARTCHAR 002F
ENCODING 47
SWIDTH 240 0
DWIDTH 8 0
BBX 10 28 -1 -3
BITMAP
0040
00C0
0080
0080
0180
0180
0100
0300
0300
0200
0200
0600
0400
0400
0C00
0800
0800
1800
1000
1000
3000
3000
2000
6000
6000
4000
4000
C000
ENDCHAR
STARTCHAR 0030
ENCODING 48
SWIDTH 540 0
DWIDTH 18 0
BBX 16 25 1 0
BITMAP
0100
0FF0
1C38
381C
300E
700E
7006
6007
E007
E007
E007
E007
E007
E007
E007
E007
E007
E007
7007
7006
700E
300E
381C
1C38
0FF0
ENDCHAR
STARTCHAR 0031
ENCODING 49
SWIDTH 540 0
DWIDTH 18 0
BBX 12 24 3 0
BITMAP
0300
0F00
FF00
FF00
0700
0700
0700
0700
0700
0700
0700
0700
0700
0700
0700
0700
0700
0700
0700
0700
0700
0700
7FF0
7FF0
ENDCHAR
STARTCHAR 0032
ENCODING 50
SWIDTH 540 0
DWIDTH 18 0
BBX 16 25 0 0
BITMAP
0040
07FC
1E1E
380F
3007
7007
7007
7807
3807
000F
000E
001C
003C
0070
00E0
01C0
0380
0700
0E00
1C00
3801
3003
7FFF
7FFF
FFFE
ENDCHAR
STARTCHAR 0033
ENCODING 51
SWIDTH 540 0
DWIDTH 18 0
BBX 17 26 0 -1
BITMAP
008000
0FF800
1C3C00
380E00
380E00
380700
380700
000F00
000E00
001E00
003800
03F000
07F000
001C00
000E00
000700
000700
000780
000780
600700
E00700
E00700
700E00
383C00
1FF800
018000
ENDCHAR
STARTCHAR 0034
ENCODING 52
SWIDTH 540 0
DWIDTH 18 0
BBX 18 25 0 0
BITMAP
000800
003C00
007C00
00FC00
01DC00
019C00
031C00
061C00
0E1C00
0C1C00
181C00
181C00
301C00
301C00
601C00
601C00
FFFF80
FFFFC0
7FFF80
001C00
001C00
001C00
001C00
003E00
007F00
ENDCHAR
STARTCHAR 0035
ENCODING 53
SWIDTH 540 0
DWIDTH 18 0
BBX 16 24 1 0
BITMAP
3FFC
3FF8
3FC0
3000
3000
3000
3000
3000
3000
77F0
7FF8
781C
200E
000F
0007
0007
0007
0007
E007
E00E
E00E
E01C
7878
3FF0
ENDCHAR
STARTCHAR 0036
ENCODING 54
SWIDTH 540 0
DWIDTH 18 0
BBX 16 26 1 -1
BITMAP
000C
007E
01E0
0780
0E00
1C00
3800
3800
7000
7000
71F0
E7FC
FC1E
F00E
E007
E007
E007
E007
E007
7007
7007
700E
380E
1E3C
0FF0
0080
ENDCHAR
STARTCHAR 0037
ENCODING 55
SWIDTH 540 0
DWIDTH 18 0
BBX 15 24 2 0
BITMAP
FFFE
FFFE
F00C
C00C
C00C
0018
0018
0030
0030
0070
0060
00E0
00E0
00C0
01C0
01C0
0380
0380
0700
0700
0700
0F00
0E00
0E00
ENDCHAR
STARTCHAR 0038
ENCODING 56
SWIDTH 540 0
DWIDTH 18 0
BBX 16 25 1 0
BITMAP
0180
0FF8
1C1C
300E
6006
6006
6006
6006
700E
781C
3F30
1FE0
07F8
0FFC
383E
701F
6007
E007
C003
C003
C003
E007
700E
381C
1FF0
ENDCHAR
STARTCHAR 0039
ENCODING 57
SWIDTH 540 0
DWIDTH 18 0
BBX 16 26 1 -1
BITMAP
0180
0FF0
3C38
701C
700E
E00E
E007
E007
E007
E007
E007
F007
700F
3C3F
1FE7
0787
000E
000E
001C
001C
0038
0070
01E0
0780
3E00
2000
ENDCHAR
STARTCHAR 003A
ENCODING 58
SWIDTH 270 0
DWIDTH 9 0
BBX 3 15 3 0
BITMAP
60
E0
E0
40
00
00
00
00
00
00
00
00
E0
E0
E0
ENDCHAR
STARTCHAR 003B
ENCODING 59
SWIDTH 270 0
DWIDTH 9 0
BBX 4 21 2 -6
BITMAP
60
F0
F0
60
00
00
00
00
00
00
00
00
70
F0
F0
10
10
10
20
60
40
ENDCHAR
STARTCHAR 003C
ENCODING 60
SWIDTH 810 0
DWIDTH 27 0
BBX 19 16 4 2
BITMAP
000060
0003E0
000F80
007C00
01F000
0FC000
3E0000
F80000
F00000
3E0000
0F8000
01F000
007C00
000F80
0003E0
0000E0
ENDCHAR
STARTCHAR 003D
ENCODING 61
SWIDTH 810 0
DWIDTH 27 0
BBX 20 8 4 6
BITMAP
FFFFF0
FFFFF0
000000
000000
000000
000000
FFFFF0
FFFFF0
ENDCHAR
STARTCHAR 003E
ENCODING 62
SWIDTH 810 0
DWIDTH 27 0
BBX 19 18 4 1
BITMAP
800000
E00000
FC0000
1F0000
07C000
00F800
003E00
0007C0
0001E0
0000E0
0007C0
001F00
00F800
03E000
1F0000
7C0000
E00000
800000
ENDCHAR
STARTCHAR 003F
ENCODING 63
SWIDTH 420 0
DWIDTH 14 0
BBX 12 25 1 0
BITMAP
0600
3FC0
60E0
E070
E030
E030
0030
0030
0030
0070
00F0
01E0
03C0
0F80
0E00
0800
0800
0800
0800
0000
0000
0000
1C00
1C00
1C00
ENDCHAR
STARTCHAR 0040
ENCODING 64
SWIDTH 960 0
DWIDTH 32 0
BBX 29 29 2 -5
BITMAP
0001C000
003C3C00
00C00300
03000080
06000040
0C000020
18000020
18000010
3007CC10
20182C10
60383C10
60701C08
60701810
C0E03810
C0E03810
C0E03010
C0C07010
40C07020
40C0F040
60C0E0C0
60613180
303E1E00
30000000
18000000
0C000040
06000080
01800300
00783C00
00034000
ENDCHAR
STARTCHAR 0041
ENCODING 65
SWIDTH 630 0
DWIDTH 21 0
BBX 22 24 0 1
BITMAP
003000
007800
007800
00DC00
00DC00
018E00
018E00
030F00
030700
070700
060380
060380
0C03C0
0C01C0
1FFFC0
1FFFE0
1800E0
3800E0
300070
300070
700070
700078
F800FC
FC00FC
ENDCHAR
STARTCHAR 0042
ENCODING 66
SWIDTH 660 0
DWIDTH 22 0
BBX 20 24 1 0
BITMAP
FFFE00
7FFF80
3803C0
3801C0
3801E0
3801E0
3801C0
3801C0
380380
380F00
387C00
3FFF00
3F87C0
3801E0
3800E0
380070
380070
380070
380070
3800F0
3800E0
3803E0
7FFFC0
FFFF00
ENDCHAR
STARTCHAR 0043
ENCODING 67
SWIDTH 690 0
DWIDTH 23 0
BBX 21 26 1 -1
BITMAP
001E00
01FFC0
07C3F0
0F00F0
1E0070
3C0038
380018
780010
700000
700000
F00000
F00000
F00000
F00000
F00000
F00000
F00000
700000
780000
780008
3C0018
1E0038
1F0070
07F7E0
03FF80
007C00
ENDCHAR
STARTCHAR 0044
ENCODING 68
SWIDTH 720 0
DWIDTH 24 0
BBX 22 24 1 0
BITMAP
FFFC00
7FFF00
3807C0
3801E0
3800F0
380070
380078
380038
38003C
38003C
38003C
38001C
38001C
38003C
38003C
38003C
380038
380078
380070
3800F0
3801E0
3807C0
7FFF00
FFF800
ENDCHAR
STARTCHAR 0045
ENCODING 69
SWIDTH 600 0
DWIDTH 20 0
BBX 19 24 1 0
BITMAP
FFFFC0
7FFFC0
3801C0
380040
380000
380000
380000
380000
380000
380200
3FFF00
3FFF00
380200
380000
380000
380000
380000
380000
380000
380020
380060
3801E0
7FFFE0
FFFFC0
ENDCHAR
STARTCHAR 0046
ENCODING 70
SWIDTH 540 0
DWIDTH 18 0
BBX 18 24 1 0
BITMAP
FFFF80
7FFF80
3801C0
3800C0
380000
380000
380000
380000
380000
380000
380E00
3FFE00
383E00
380200
380000
380000
380000
380000
380000
380000
380000
380000
FC0000
FE0000
ENDCHAR
STARTCHAR 0047
ENCODING 71
SWIDTH 750 0
DWIDTH 25 0
BBX 23 26 1 -1
BITMAP
001E00
00FFE0
03E0F8
070038
0E001C
1C000C
3C000C
380000
780000
700000
F00000
F00000
F00000
F003FC
F0007E
F0001E
F0000E
70000E
78000E
38000E
3C001E
1E001E
0F003C
07C0F8
01FFE0
003E00
ENDCHAR
STARTCHAR 0048
ENCODING 72
SWIDTH 750 0
DWIDTH 25 0
BBX 24 24 1 0
BITMAP
FE007F
7C007E
38001C
38001C
38001C
38001C
38001C
38001C
38001C
38001C
3FFFFC
3FFFFC
38001C
38001C
38001C
38001C
38001C
38001C
38001C
38001C
38001C
38001C
7C007E
FE007F
ENDCHAR
STARTCHAR 0049
ENCODING 73
SWIDTH 270 0
DWIDTH 9 0
BBX 7 24 1 0
BITMAP
FE
7C
38
38
38
38
38
38
38
38
38
38
38
38
38
38
38
38
38
38
38
38
7C
FE
ENDCHAR
STARTCHAR 004A
ENCODING 74
SWIDTH 450 0
DWIDTH 15 0
BBX 14 25 0 -1
BITMAP
01FC
00FC
0078
0070
0070
0070
0070
0070
0070
0070
0070
0070
0070
0070
0070
0070
7870
F870
E070
C070
C070
C070
70E0
3FC0
0F00
ENDCHAR
STARTCHAR 004B
ENCODING 75
SWIDTH 600 0
DWIDTH 20 0
BBX 21 24 1 0
BITMAP
FE07E0
7C07E0
380380
380300
380700
380E00
381C00
383800
387000
38E000
39F000
3BF800
3F3C00
3E1C00
3C0E00
380F00
380700
380380
380380
3801C0
3801C0
3801E0
7C01F0
FE03F8
ENDCHAR
STARTCHAR 004C
ENCODING 76
SWIDTH 570 0
DWIDTH 19 0
BBX 19 24 1 0
BITMAP
FE0000
7C0000
380000
380000
380000
380000
380000
380000
380000
380000
380000
380000
380000
380000
380000
380000
380000
380000
380000
380000
380060
3801E0
7FFFC0
FFFFC0
ENDCHAR
STARTCHAR 004D
ENCODING 77
SWIDTH 810 0
DWIDTH 27 0
BBX 27 24 0 0
BITMAP
7E0007E0
3E000FC0
1F000F00
1F001F00
1B801F00
1B801F00
1B803700
19C03700
19C07700
18E06700
18E0E700
18E0C700
1870C700
18718700
18398300
183B0300
181F0300
181F0300
180E0380
180E0380
18040380
38000780
7C0007C0
FE000FE0
ENDCHAR
STARTCHAR 004E
ENCODING 78
SWIDTH 720 0
DWIDTH 24 0
BBX 23 24 0 0
BITMAP
FC007E
7E003E
1F001C
1F801C
1BC01C
19E01C
18E01C
18701C
18781C
183C1C
181C1C
180E1C
180F1C
18079C
18039C
1801DC
1801FC
1800FC
18007C
18007C
18003C
38001C
7E001C
FF0008
ENDCHAR
STARTCHAR 004F
ENCODING 79
SWIDTH 750 0
DWIDTH 25 0
BBX 23 26 1 -1
BITMAP
003800
01FF80
07C3E0
0F00F0
1C0078
3C0038
38001C
70001C
70001E
70000E
F0000E
F0000E
F0000E
F0000E
F0000E
F0000E
70000E
70001E
70001C
38001C
380038
1C0078
0E00F0
0783E0
03FF80
007C00
ENDCHAR
STARTCHAR 0050
ENCODING 80
SWIDTH 600 0
DWIDTH 20 0
BBX 19 24 1 0
BITMAP
FFFC00
7FFF00
3C0780
3803C0
3801C0
3801E0
3801E0
3801E0
3801C0
3803C0
380780
380F00
39FE00
3FF000
3F0000
380000
380000
380000
380000
380000
380000
380000
7E0000
FE0000
ENDCHAR
STARTCHAR 0051
ENCODING 81
SWIDTH 750 0
DWIDTH 25 0
BBX 23 30 1 -5
BITMAP
001800
01FF80
07C3E0
0F00F0
1C0078
3C0038
38001C
70001C
70001E
70000E
F0000E
F0000E
F0000E
F0000E
F0000E
F0000E
F0000E
70001E
70001C
38181C
381838
1C0878
0E08F0
078FE0
03FF80
007F00
000380
0001FE
0000FE
00001C
ENDCHAR
STARTCHAR 0052
ENCODING 82
SWIDTH 630 0
DWIDTH 21 0
BBX 21 24 1 0
BITMAP
FFFE00
7FFF80
3807C0
3801E0
3801E0
3800E0
3801E0
3801E0
3803C0
380780
381F00
3BFC00
3FFC00
3C1E00
380E00
380F00
380700
380380
380380
3801C0
3801C0
3801E0
7E03F0
FE03F8
ENDCHAR
STARTCHAR 0053
ENCODING 83
SWIDTH 570 0
DWIDTH 19 0
BBX 18 26 0 -1
BITMAP
00E000
07FE00
1E1F00
180700
380300
300100
700000
700000
780000
3C0000
3F8000
1FF800
0FFF00
01FF80
000FC0
0003C0
0001C0
0000C0
0000C0
E000C0
E001C0
700180
380380
1E1F00
0FFC00
01E000
ENDCHAR
STARTCHAR 0054
ENCODING 84
SWIDTH 600 0
DWIDTH 20 0
BBX 20 24 0 0
BITMAP
7FFFE0
FFFFE0
E0E0F0
C0E030
00E000
00E000
00E000
00E000
00E000
00E000
00E000
00E000
00E000
00E000
00E000
00E000
00E000
00E000
00E000
00E000
00E000
00E000
01F800
03F800
ENDCHAR
STARTCHAR 0055
ENCODING 85
SWIDTH 690 0
DWIDTH 23 0
BBX 22 25 1 -1
BITMAP
FE01FC
FC00F8
380070
380070
380030
700030
700030
700030
700030
700030
700030
700030
700030
700030
700030
700030
700030
700030
380070
380060
3C00E0
1E01C0
0F8780
07FF00
00F800
ENDCHAR
STARTCHAR 0056
ENCODING 86
SWIDTH 630 0
DWIDTH 21 0
BBX 22 25 0 -1
BITMAP
FC00FC
F80078
780038
780030
380030
380070
380060
380060
1C00E0
1C00E0
1C00C0
0E01C0
0E01C0
0E0180
070380
070300
038700
038600
01CE00
01CC00
01FC00
00F800
007800
007000
002000
ENDCHAR
STARTCHAR 0057
ENCODING 87
SWIDTH 900 0
DWIDTH 30 0
BBX 31 25 0 -1
BITMAP
FE07E07E
7C07C07C
78038018
30038018
38038018
38038018
38038030
3807C030
1807C030
1C07C030
1C06E060
1C0CE060
0C0CE060
0E0C7060
0E1870C0
0E1870C0
073838C0
073039C0
07303D80
03F01D80
03E01F80
03E00F00
01C00F00
01C00600
00800000
ENDCHAR
STARTCHAR 0058
ENCODING 88
SWIDTH 660 0
DWIDTH 22 0
BBX 21 24 1 0
BITMAP
FC07F0
F803E0
7801C0
380180
1C0300
1E0700
0E0600
070C00
079800
03F800
01F000
00F000
00F000
01B800
03BC00
031E00
060F00
0E0700
0C0380
1803C0
3801C0
3801E0
F801F0
FC03F8
ENDCHAR
STARTCHAR 0059
ENCODING 89
SWIDTH 630 0
DWIDTH 21 0
BBX 23 24 -1 0
BITMAP
FE007E
7E003C
3C0038
1C0038
0E0030
0F0060
070060
0380C0
03C180
01C180
00E300
00F600
007E00
003C00
003800
003800
003800
003800
003800
003800
003800
003C00
007E00
007E00
ENDCHAR
STARTCHAR 005A
ENCODING 90
SWIDTH 540 0
DWIDTH 18 0
BBX 17 24 1 0
BITMAP
7FFF00
7FFF00
700700
600F00
000E00
001C00
003C00
003800
007000
00F000
01E000
01C000
038000
078000
0F0000
0E0000
1C0000
3C0000
380000
700080
F00180
E00780
FFFF80
FFFF00
ENDCHAR
STARTCHAR 005B
ENCODING 91
SWIDTH 300 0
DWIDTH 10 0
BBX 6 29 3 -5
BITMAP
FC
FC
E0
E0
E0
E0
E0
E0
E0
E0
E0
E0
E0
E0
E0
E0
E0
E0
E0
E0
E0
E0
E0
E0
E0
E0
E0
FC
FC
ENDCHAR
STARTCHAR 005C
ENCODING 92
SWIDTH 240 0
DWIDTH 8 0
BBX 10 28 -1 -3
BITMAP
8000
C000
4000
4000
6000
2000
2000
3000
1000
1000
1800
0800
0800
0C00
0C00
0400
0600
0600
0200
0200
0300
0100
0100
0180
0080
0080
00C0
0040
ENDCHAR
STARTCHAR 005D
ENCODING 93
SWIDTH 300 0
DWIDTH 10 0
BBX 6 29 2 -5
BITMAP
FC
FC
1C
1C
1C
1C
1C
1C
1C
1C
1C
1C
1C
1C
1C
1C
1C
1C
1C
1C
1C
1C
1C
1C
1C
1C
1C
FC
FC
ENDCHAR
STARTCHAR 005E
ENCODING 94
SWIDTH 990 0
DWIDTH 33 0
BBX 19 9 7 15
BITMAP
00E000
01F000
03B800
071C00
0E0E00
1C0700
380180
6000C0
C00060
ENDCHAR
STARTCHAR 005F
ENCODING 95
SWIDTH 480 0
DWIDTH 16 0
BBX 17 2 0 -8
BITMAP
FFFF80
FFFF80
ENDCHAR
STARTCHAR 0060
ENCODING 96
SWIDTH 480 0
DWIDTH 16 0
BBX 7 5 4 18
BITMAP
C0
E0
70
18
06
ENDCHAR
STARTCHAR 0061
ENCODING 97
SWIDTH 630 0
DWIDTH 21 0
BBX 22 24 0 1
BITMAP
003000
007800
007800
00DC00
00DC00
018E00
018E00
030F00
030700
070700
060380
060380
0C03C0
0C01C0
1FFFC0
1FFFE0
1800E0
3800E0
300070
300070
700070
700078
F800FC
FC00FC
ENDCHAR
STARTCHAR 0062
ENCODING 98
SWIDTH 660 0
DWIDTH 22 0
BBX 20 24 1 0
BITMAP
FFFE00
7FFF80
3803C0
3801C0
3801E0
3801E0
3801C0
3801C0
380380
380F00
387C00
3FFF00
3F87C0
3801E0
3800E0
380070
380070
380070
380070
3800F0
3800E0
3803E0
7FFFC0
FFFF00
ENDCHAR
STARTCHAR 0063
ENCODING 99
SWIDTH 690 0
DWIDTH 23 0
BBX 21 26 1 -1
BITMAP
001E00
01FFC0
07C3F0
0F00F0
1E0070
3C0038
380018
780010
700000
700000
F00000
F00000
F00000
F00000
F00000
F00000
F00000
700000
780000
780008
3C0018
1E0038
1F0070
07F7E0
03FF80
007C00
ENDCHAR
STARTCHAR 0064
ENCODING 100
SWIDTH 720 0
DWIDTH 24 0
BBX 22 24 1 0
BITMAP
FFFC00
7FFF00
3807C0
3801E0
3800F0
380070
380078
380038
38003C
38003C
38003C
38001C
38001C
38003C
38003C
38003C
380038
380078
380070
3800F0
3801E0
3807C0
7FFF00
FFF800
ENDCHAR
STARTCHAR 0065
ENCODING 101
SWIDTH 600 0
DWIDTH 20 0
BBX 19 24 1 0
BITMAP
FFFFC0
7FFFC0
3801C0
380040
380000
380000
380000
380000
380000
380200
3FFF00
3FFF00
380200
380000
380000
380000
380000
380000
380000
380020
380060
3801E0
7FFFE0
FFFFC0
ENDCHAR
STARTCHAR 0066
ENCODING 102
SWIDTH 540 0
DWIDTH 18 0
BBX 18 24 1 0
BITMAP
FFFF80
7FFF80
3801C0
3800C0
380000
380000
380000
380000
380000
380000
380E00
3FFE00
383E00
380200
380000
380000
380000
380000
380000
380000
380000
380000
FC0000
FE0000
ENDCHAR
STARTCHAR 0067
ENCODING 103
SWIDTH 750 0
DWIDTH 25 0
BBX 23 26 1 -1
BITMAP
001E00
00FFE0
03E0F8
070038
0E001C
1C000C
3C000C
380000
780000
700000
F00000
F00000
F00000
F003FC
F0007E
F0001E
F0000E
70000E
78000E
38000E
3C001E
1E001E
0F003C
07C0F8
01FFE0
003E00
ENDCHAR
STARTCHAR 0068
ENCODING 104
SWIDTH 750 0
DWIDTH 25 0
BBX 24 24 1 0
BITMAP
FE007F
7C007E
38001C
38001C
38001C
38001C
38001C
38001C
38001C
38001C
3FFFFC
3FFFFC
38001C
38001C
38001C
38001C
38001C
38001C
38001C
38001C
38001C
38001C
7C007E
FE007F
ENDCHAR
STARTCHAR 0069
ENCODING 105
SWIDTH 270 0
DWIDTH 9 0
BBX 7 24 1 0
BITMAP
FE
7C
38
38
38
38
38
38
38
38
38
38
38
38
38
38
38
38
38
38
38
38
7C
FE
ENDCHAR
STARTCHAR 006A
ENCODING 106
SWIDTH 450 0
DWIDTH 15 0
BBX 14 25 0 -1
BITMAP
01FC
00FC
0078
0070
0070
0070
0070
0070
0070
0070
0070
0070
0070
0070
0070
0070
7870
F870
E070
C070
C070
C070
70E0
3FC0
0F00
ENDCHAR
STARTCHAR 006B
ENCODING 107
SWIDTH 600 0
DWIDTH 20 0
BBX 21 24 1 0
BITMAP
FE07E0
7C07E0
380380
380300
380700
380E00
381C00
383800
387000
38E000
39F000
3BF800
3F3C00
3E1C00
3C0E00
380F00
380700
380380
380380
3801C0
3801C0
3801E0
7C01F0
FE03F8
ENDCHAR
STARTCHAR 006C
ENCODING 108
SWIDTH 570 0
DWIDTH 19 0
BBX 19 24 1 0
BITMAP
FE0000
7C0000
380000
380000
380000
380000
380000
380000
380000
380000
380000
380000
380000
380000
380000
380000
380000
380000
380000
380000
380060
3801E0
7FFFC0
FFFFC0
ENDCHAR
STARTCHAR 006D
ENCODING 109
SWIDTH 810 0
DWIDTH 27 0
BBX 27 24 0 0
BITMAP
7E0007E0
3E000FC0
1F000F00
1F001F00
1B801F00
1B801F00
1B803700
19C03700
19C07700
18E06700
18E0E700
18E0C700
1870C700
18718700
18398300
183B0300
181F0300
181F0300
180E0380
180E0380
18040380
38000780
7C0007C0
FE000FE0
ENDCHAR
STARTCHAR 006E
ENCODING 110
SWIDTH 720 0
DWIDTH 24 0
BBX 23 24 0 0
BITMAP
FC007E
7E003E
1F001C
1F801C
1BC01C
19E01C
18E01C
18701C
18781C
183C1C
181C1C
180E1C
180F1C
18079C
18039C
1801DC
1801FC
1800FC
18007C
18007C
18003C
38001C
7E001C
FF0008
ENDCHAR
STARTCHAR 006F
ENCODING 111
SWIDTH 750 0
DWIDTH 25 0
BBX 23 26 1 -1
BITMAP
003800
01FF80
07C3E0
0F00F0
1C0078
3C0038
38001C
70001C
70001E
70000E
F0000E
F0000E
F0000E
F0000E
F0000E
F0000E
70000E
70001E
70001C
38001C
380038
1C0078
0E00F0
0783E0
03FF80
007C00
ENDCHAR
STARTCHAR 0070
ENCODING 112
SWIDTH 600 0
DWIDTH 20 0
BBX 19 24 1 0
BITMAP
FFFC00
7FFF00
3C0780
3803C0
3801C0
3801E0
3801E0
3801E0
3801C0
3803C0
380780
380F00
39FE00
3FF000
3F0000
380000
380000
380000
380000
380000
380000
380000
7E0000
FE0000
ENDCHAR
STARTCHAR 0071
ENCODING 113
SWIDTH 750 0
DWIDTH 25 0
BBX 23 30 1 -5
BITMAP
001800
01FF80
07C3E0
0F00F0
1C0078
3C0038
38001C
70001C
70001E
70000E
F0000E
F0000E
F0000E
F0000E
F0000E
F0000E
F0000E
70001E
70001C
38181C
381838
1C0878
0E08F0
078FE0
03FF80
007F00
000380
0001FE
0000FE
00001C
ENDCHAR
STARTCHAR 0072
ENCODING 114
SWIDTH 630 0
DWIDTH 21 0
BBX 21 24 1 0
BITMAP
FFFE00
7FFF80
3807C0
3801E0
3801E0
3800E0
3801E0
3801E0
3803C0
380780
381F00
3BFC00
3FFC00
3C1E00
380E00
380F00
380700
380380
380380
3801C0
3801C0
3801E0
7E03F0
FE03F8
ENDCHAR
STARTCHAR 0073
ENCODING 115
SWIDTH 570 0
DWIDTH 19 0
BBX 18 26 0 -1
BITMAP
00E000
07FE00
1E1F00
180700
380300
300100
700000
700000
780000
3C0000
3F8000
1FF800
0FFF00
01FF80
000FC0
0003C0
0001C0
0000C0
0000C0
E000C0
E001C0
700180
380380
1E1F00
0FFC00
01E000
ENDCHAR
STARTCHAR 0074
ENCODING 116
SWIDTH 600 0
DWIDTH 20 0
BBX 20 24 0 0
BITMAP
7FFFE0
FFFFE0
E0E0F0
C0E030
00E000
00E000
00E000
00E000
00E000
00E000
00E000
00E000
00E000
00E000
00E000
00E000
00E000
00E000
00E000
00E000
00E000
00E000
01F800
03F800
ENDCHAR
STARTCHAR 0075
ENCODING 117
SWIDTH 690 0
DWIDTH 23 0
BBX 22 25 1 -1
BITMAP
FE01FC
FC00F8
380070
380070
380030
700030
700030
700030
700030
700030
700030
700030
700030
700030
700030
700030
700030
700030
380070
380060
3C00E0
1E01C0
0F8780
07FF00
00F800
ENDCHAR
STARTCHAR 0076
ENCODING 118
SWIDTH 630 0
DWIDTH 21 0
BBX 22 25 0 -1
BITMAP
FC00FC
F80078
780038
780030
380030
380070
380060
380060
1C00E0
1C00E0
1C00C0
0E01C0
0E01C0
0E0180
070380
070300
038700
038600
01CE00
01CC00
01FC00
00F800
007800
007000
002000
ENDCHAR
STARTCHAR 0077
ENCODING 119
SWIDTH 900 0
DWIDTH 30 0
BBX 31 25 0 -1
BITMAP
FE07E07E
7C07C07C
78038018
30038018
38038018
38038018
38038030
3807C030
1807C030
1C07C030
1C06E060
1C0CE060
0C0CE060
0E0C7060
0E1870C0
0E1870C0
073838C0
073039C0
07303D80
03F01D80
03E01F80
03E00F00
01C00F00
01C00600
00800000
ENDCHAR
STARTCHAR 0078
ENCODING 120
SWIDTH 660 0
DWIDTH 22 0
BBX 21 24 1 0
BITMAP
FC07F0
F803E0
7801C0
380180
1C0300
1E0700
0E0600
070C00
079800
03F800
01F000
00F000
00F000
01B800
03BC00
031E00
060F00
0E0700
0C0380
1803C0
3801C0
3801E0
F801F0
FC03F8
ENDCHAR
STARTCHAR 0079
ENCODING 121
SWIDTH 630 0
DWIDTH 21 0
BBX 23 24 -1 0
BITMAP
FE007E
7E003C
3C0038
1C0038
0E0030
0F0060
070060
0380C0
03C180
01C180
00E300
00F600
007E00
003C00
003800
003800
003800
003800
003800
003800
003800
003C00
007E00
007E00
ENDCHAR
STARTCHAR 007A
ENCODING 122
SWIDTH 540 0
DWIDTH 18 0
BBX 17 24 1 0
BITMAP
7FFF00
7FFF00
700700
600F00
000E00
001C00
003C00
003800
007000
00F000
01E000
01C000
038000
078000
0F0000
0E0000
1C0000
3C0000
380000
700080
F00180
E00780
FFFF80
FFFF00
ENDCHAR
STARTCHAR 007B
ENCODING 123
SWIDTH 480 0
DWIDTH 16 0
BBX 11 29 3 -4
BITMAP
0060
0380
0600
0600
0E00
0E00
0E00
0E00
0E00
0E00
0E00
0C00
0C00
1800
E000
3800
0C00
0C00
0E00
0E00
0E00
0E00
0E00
0E00
0E00
0600
0600
0700
01E0
ENDCHAR
STARTCHAR 007C
ENCODING 124
SWIDTH 480 0
DWIDTH 16 0
BBX 2 33 7 -8
BITMAP
C0
C0
C0
C0
C0
C0
C0
C0
C0
C0
C0
C0
C0
C0
C0
C0
C0
C0
C0
C0
C0
C0
C0
C0
C0
C0
C0
C0
C0
C0
C0
C0
C0
ENDCHAR
STARTCHAR 007D
ENCODING 125
SWIDTH 480 0
DWIDTH 16 0
BBX 11 29 3 -4
BITMAP
C000
3800
1C00
0C00
0C00
0C00
0C00
0C00
0C00
0C00
0C00
0C00
0600
0300
00E0
0380
0600
0E00
0C00
0C00
0C00
0C00
0C00
0C00
0C00
0C00
0C00
1800
E000
ENDCHAR
STARTCHAR 007E
ENCODING 126
SWIDTH 810 0
DWIDTH 27 0
BBX 22 4 3 7
BITMAP
1F8004
7FF01C
E07FF8
800FE0
ENDCHAR
STARTCHAR 0080
ENCODING 128
SWIDTH 630 0
DWIDTH 21 0
BBX 22 32 0 0
BITMAP
038000
01C000
00E000
007000
001800
000400
000000
000000
003000
007800
007800
00DC00
00DC00
018E00
018E00
030F00
030700
070700
060380
060380
0C03C0
0C01C0
1FFFC0
1FFFE0
1800E0
3800E0
300070
300070
700070
700078
F800FC
FC00FC
ENDCHAR
STARTCHAR 0081
ENCODING 129
SWIDTH 630 0
DWIDTH 21 0
BBX 22 34 0 0
BITMAP
003800
004800
000400
000400
000800
003000
002000
002000
000000
000000
003000
007800
007800
00DC00
00DC00
018E00
018E00
030F00
030700
070700
060380
060380
0C03C0
0C01C0
1FFFC0
1FFFE0
1800E0
3800E0
300070
300070
700070
700078
F800FC
FC00FC
ENDCHAR
STARTCHAR 008D
ENCODING 141
SWIDTH 630 0
DWIDTH 21 0
BBX 22 36 0 1
BITMAP
000380
000780
000E00
001C00
003000
000000
020200
018C00
00F800
007000
000000
000000
003000
007800
007800
00DC00
00DC00
018E00
018E00
030F00
030700
070700
060380
060380
0C03C0
0C01C0
1FFFC0
1FFFE0
1800E0
3800E0
300070
300070
700070
700078
F800FC
FC00FC
ENDCHAR
STARTCHAR 008E
ENCODING 142
SWIDTH 630 0
DWIDTH 21 0
BBX 22 37 0 0
BITMAP
0C0000
0E0000
070000
038000
00C000
002000
000000
020200
018C00
00F800
007000
000000
000000
003000
007800
007800
00DC00
00DC00
018E00
018E00
030F00
030700
070700
060380
060380
0C03C0
0C01C0
1FFFC0
1FFFE0
1800E0
3800E0
300070
300070
700070
700078
F800FC
FC00FC
ENDCHAR
STARTCHAR 008F
ENCODING 143
SWIDTH 630 0
DWIDTH 21 0
BBX 22 38 0 0
BITMAP
003800
004800
000400
000C00
000800
003000
002000
002000
020200
018C00
00F800
007000
000000
000000
003000
007800
007800
00DC00
00DC00
018E00
018E00
030F00
030700
070700
060380
060380
0C03C0
0C01C0
1FFFC0
1FFFE0
1800E0
3800E0
300070
300070
700070
700078
F800FC
FC00FC
ENDCHAR
STARTCHAR 0090
ENCODING 144
SWIDTH 600 0
DWIDTH 20 0
BBX 20 36 1 0
BITMAP
000030
000070
0000E0
000180
00E300
00F400
01B800
031800
020C00
040200
000000
000000
FFFFC0
7FFFC0
3801C0
380040
380000
380000
380000
380000
380000
380200
3FFF00
3FFF00
380200
380000
380000
380000
380000
380000
380000
380020
380060
3801E0
7FFFE0
FFFFC0
ENDCHAR
STARTCHAR 009D
ENCODING 157
SWIDTH 750 0
DWIDTH 25 0
BBX 23 35 1 -1
BITMAP
0001C0
000380
000700
000E00
001838
002024
000004
000004
000018
003820
01FFC0
07C3E0
0F00F0
1C0078
3C0038
38001C
70001C
70001E
70000E
F0000E
F0000E
F0000E
F0000E
F0000E
F0000E
70000E
70001E
70001C
38001C
380038
1C0078
0E00F0
0783E0
03FF80
007C00
ENDCHAR
STARTCHAR 009E
ENCODING 158
SWIDTH 750 0
DWIDTH 25 0
BBX 23 35 1 -1
BITMAP
018000
01C000
00E000
003000
000838
000424
000004
000004
000018
003820
01FFC0
07C3E0
0F00F0
1C0078
3C0038
38001C
70001C
70001E
70000E
F0000E
F0000E
F0000E
F0000E
F0000E
F0000E
70000E
70001E
70001C
38001C
380038
1C0078
0E00F0
0783E0
03FF80
007C00
ENDCHAR
STARTCHAR 00A0
ENCODING 160
SWIDTH 540 0
DWIDTH 18 0
BBX 0 0 0 0
BITMAP
ENDCHAR
STARTCHAR 00A1
ENCODING 161
SWIDTH 630 0
DWIDTH 21 0
BBX 22 36 0 1
BITMAP
000380
000780
000E00
001C00
003000
000000
020200
018C00
00F800
007000
000000
000000
003000
007800
007800
00DC00
00DC00
018E00
018E00
030F00
030700
070700
060380
060380
0C03C0
0C01C0
1FFFC0
1FFFE0
1800E0
3800E0
300070
300070
700070
700078
F800FC
FC00FC
ENDCHAR
STARTCHAR 00A2
ENCODING 162
SWIDTH 630 0
DWIDTH 21 0
BBX 22 37 0 0
BITMAP
0C0000
0E0000
070000
038000
00C000
002000
000000
020200
018C00
00F800
007000
000000
000000
003000
007800
007800
00DC00
00DC00
018E00
018E00
030F00
030700
070700
060380
060380
0C03C0
0C01C0
1FFFC0
1FFFE0
1800E0
3800E0
300070
300070
700070
700078
F800FC
FC00FC
ENDCHAR
STARTCHAR 00A3
ENCODING 163
SWIDTH 630 0
DWIDTH 21 0
BBX 22 38 0 0
BITMAP
003800
004800
000400
000C00
000800
003000
002000
002000
020200
018C00
00F800
007000
000000
000000
003000
007800
007800
00DC00
00DC00
018E00
018E00
030F00
030700
070700
060380
060380
0C03C0
0C01C0
1FFFC0
1FFFE0
1800E0
3800E0
300070
300070
700070
700078
F800FC
FC00FC
ENDCHAR
STARTCHAR 00A4
ENCODING 164
SWIDTH 630 0
DWIDTH 21 0
BBX 22 36 0 0
BITMAP
00E200
01FE00
013C00
020000
000000
000000
020200
018C00
00F800
007000
000000
000000
003000
007800
007800
00DC00
00DC00
018E00
018E00
030F00
030700
070700
060380
060380
0C03C0
0C01C0
1FFFC0
1FFFE0
1800E0
3800E0
300070
300070
700070
700078
F800FC
FC00FC
ENDCHAR
STARTCHAR 00A5
ENCODING 165
SWIDTH 630 0
DWIDTH 21 0
BBX 22 35 0 -5
BITMAP
020200
018C00
00F800
007000
000000
000000
003000
007800
007800
00DC00
00DC00
018E00
018E00
030F00
030700
070700
060380
060380
0C03C0
0C01C0
1FFFC0
1FFFE0
1800E0
3800E0
300070
300070
700070
700078
F800FC
FC00FC
000000
000000
00E000
00F000
006000
ENDCHAR
STARTCHAR 00A6
ENCODING 166
SWIDTH 750 0
DWIDTH 25 0
BBX 23 37 1 -1
BITMAP
007100
00FF00
019E00
010000
000000
000000
000038
000024
000004
000004
000018
003820
01FFC0
07C3E0
0F00F0
1C0078
3C0038
38001C
70001C
70001E
70000E
F0000E
F0000E
F0000E
F0000E
F0000E
F0000E
70000E
70001E
70001C
38001C
380038
1C0078
0E00F0
0783E0
03FF80
007C00
ENDCHAR
STARTCHAR 00A7
ENCODING 167
SWIDTH 750 0
DWIDTH 25 0
BBX 23 35 1 -1
BITMAP
0001C0
000380
000700
000E00
001838
002024
000004
000004
000018
003820
01FFC0
07C3E0
0F00F0
1C0078
3C0038
38001C
70001C
70001E
70000E
F0000E
F0000E
F0000E
F0000E
F0000E
F0000E
70000E
70001E
70001C
38001C
380038
1C0078
0E00F0
0783E0
03FF80
007C00
ENDCHAR
STARTCHAR 00A8
ENCODING 168
SWIDTH 690 0
DWIDTH 23 0
BBX 22 33 1 -1
BITMAP
018000
01C000
00E000
003000
001800
000400
000000
000000
FE01FC
FC00F8
380070
380070
380030
700030
700030
700030
700030
700030
700030
700030
700030
700030
700030
700030
700030
700030
380070
380060
3C00E0
1E01C0
0F8780
07FF00
00F800
ENDCHAR
STARTCHAR 00A9
ENCODING 169
SWIDTH 750 0
DWIDTH 25 0
BBX 23 35 1 -1
BITMAP
018000
01C000
00E000
003000
000838
000424
000004
000004
000018
003820
01FFC0
07C3E0
0F00F0
1C0078
3C0038
38001C
70001C
70001E
70000E
F0000E
F0000E
F0000E
F0000E
F0000E
F0000E
70000E
70001E
70001C
38001C
380038
1C0078
0E00F0
0783E0
03FF80
007C00
ENDCHAR
STARTCHAR 00AA
ENCODING 170
SWIDTH 750 0
DWIDTH 25 0
BBX 23 37 1 -1
BITMAP
001C00
002200
000200
000200
000400
000800
001038
000024
000004
000004
000018
003820
01FFC0
07C3E0
0F00F0
1C0078
3C0038
38001C
70001C
70001E
70000E
F0000E
F0000E
F0000E
F0000E
F0000E
F0000E
70000E
70001E
70001C
38001C
380038
1C0078
0E00F0
0783E0
03FF80
007C00
ENDCHAR
STARTCHAR 00AB
ENCODING 171
SWIDTH 750 0
DWIDTH 25 0
BBX 23 37 1 -1
BITMAP
007100
00FF00
019E00
010000
000000
000000
000038
000024
000004
000004
000018
003820
01FFC0
07C3E0
0F00F0
1C0078
3C0038
38001C
70001C
70001E
70000E
F0000E
F0000E
F0000E
F0000E
F0000E
F0000E
70000E
70001E
70001C
38001C
380038
1C0078
0E00F0
0783E0
03FF80
007C00
ENDCHAR
STARTCHAR 00AC
ENCODING 172
SWIDTH 690 0
DWIDTH 23 0
BBX 22 32 1 -1
BITMAP
000080
007F80
00FF00
008000
000000
000000
000000
FE01FC
FC00F8
380070
380070
380030
700030
700030
700030
700030
700030
700030
700030
700030
700030
700030
700030
700030
700030
380070
380060
3C00E0
1E01C0
0F8780
07FF00
00F800
ENDCHAR
STARTCHAR 00AD
ENCODING 173
SWIDTH 690 0
DWIDTH 23 0
BBX 24 35 1 0
BITMAP
000380
000780
000600
000C00
00101E
002011
000001
000001
000006
000008
FE01FC
FC00F8
380070
380070
380030
700030
700030
700030
700030
700030
700030
700030
700030
700030
700030
700030
700030
700030
380070
380060
3C00E0
1E01C0
0F8780
07FF00
00F800
ENDCHAR
STARTCHAR 00AE
ENCODING 174
SWIDTH 750 0
DWIDTH 25 0
BBX 23 36 1 -6
BITMAP
000038
000024
000004
000004
000018
003820
01FFC0
07C3E0
0F00F0
1C0078
3C0038
38001C
70001C
70001E
70000E
F0000E
F0000E
F0000E
F0000E
F0000E
F0000E
70000E
70001E
70001C
38001C
380038
1C0078
0E00F0
0783E0
03FF80
007C00
000000
001800
003C00
003C00
001800
ENDCHAR
STARTCHAR 00AF
ENCODING 175
SWIDTH 690 0
DWIDTH 23 0
BBX 24 35 1 -1
BITMAP
038000
03C000
01E000
006000
00101E
000811
000001
000001
000006
000008
FE01FC
FC00F8
380070
380070
380030
700030
700030
700030
700030
700030
700030
700030
700030
700030
700030
700030
700030
700030
380070
380060
3C00E0
1E01C0
0F8780
07FF00
00F800
ENDCHAR
STARTCHAR 00B0
ENCODING 176
SWIDTH 750 0
DWIDTH 25 0
BBX 23 38 1 -1
BITMAP
0000F0
000190
000010
000010
000030
003840
003C40
006E00
00C600
008300
010080
000000
003800
01FF80
07C3E0
0F00F0
1C0078
3C0038
38001C
70001C
70001E
70000E
F0000E
F0000E
F0000E
F0000E
F0000E
F0000E
70000E
70001E
70001C
38001C
380038
1C0078
0E00F0
0783E0
03FF80
007C00
ENDCHAR
STARTCHAR 00B1
ENCODING 177
SWIDTH 690 0
DWIDTH 23 0
BBX 24 36 1 -1
BITMAP
000800
003600
002200
000200
000600
000C1E
001011
001001
000001
000006
000008
FE01FC
FC00F8
380070
380070
380030
700030
700030
700030
700030
700030
700030
700030
700030
700030
700030
700030
700030
700030
380070
380060
3C00E0
1E01C0
0F8780
07FF00
00F800
ENDCHAR
STARTCHAR 00B2
ENCODING 178
SWIDTH 630 0
DWIDTH 21 0
BBX 23 32 -1 0
BITMAP
018000
01C000
01E000
007000
001800
000C00
000000
000000
FE007E
7E003C
3C0038
1C0038
0E0030
0F0060
070060
0380C0
03C180
01C180
00E300
00F600
007E00
003C00
003800
003800
003800
003800
003800
003800
003800
003C00
007E00
007E00
ENDCHAR
STARTCHAR 00B3
ENCODING 179
SWIDTH 630 0
DWIDTH 21 0
BBX 23 31 -1 0
BITMAP
001040
007F80
004F80
000000
000000
000000
000000
FE007E
7E003C
3C0038
1C0038
0E0030
0F0060
070060
0380C0
03C180
01C180
00E300
00F600
007E00
003C00
003800
003800
003800
003800
003800
003800
003800
003C00
007E00
007E00
ENDCHAR
STARTCHAR 00B4
ENCODING 180
SWIDTH 270 0
DWIDTH 9 0
BBX 8 32 1 0
BITMAP
03
07
0E
18
30
40
00
00
FE
7C
38
38
38
38
38
38
38
38
38
38
38
38
38
38
38
38
38
38
38
38
7C
FE
ENDCHAR
STARTCHAR 00B5
ENCODING 181
SWIDTH 270 0
DWIDTH 9 0
BBX 8 32 0 0
BITMAP
E0
F0
78
18
04
02
00
00
7F
3E
1C
1C
1C
1C
1C
1C
1C
1C
1C
1C
1C
1C
1C
1C
1C
1C
1C
1C
1C
1C
3E
7F
ENDCHAR
STARTCHAR 00B6
ENCODING 182
SWIDTH 750 0
DWIDTH 25 0
BBX 23 38 1 -6
BITMAP
003800
003C00
006E00
00C600
008300
010080
000000
003800
01FF80
07C3E0
0F00F0
1C0078
3C0038
38001C
70001C
70001E
70000E
F0000E
F0000E
F0000E
F0000E
F0000E
F0000E
70000E
70001E
70001C
38001C
380038
1C0078
0E00F0
0783E0
03FF80
007C00
000000
001800
003C00
003C00
001800
ENDCHAR
STARTCHAR 00B8
ENCODING 184
SWIDTH 270 0
DWIDTH 9 0
BBX 9 31 0 0
BITMAP
0080
7980
FF00
8E00
0000
0000
0000
7F00
3E00
1C00
1C00
1C00
1C00
1C00
1C00
1C00
1C00
1C00
1C00
1C00
1C00
1C00
1C00
1C00
1C00
1C00
1C00
1C00
1C00
3E00
7F00
ENDCHAR
STARTCHAR 00B9
ENCODING 185
SWIDTH 750 0
DWIDTH 25 0
BBX 23 33 1 -1
BITMAP
000300
000700
000E00
001800
003000
004000
000000
003800
01FF80
07C3E0
0F00F0
1C0078
3C0038
38001C
70001C
70001E
70000E
F0000E
F0000E
F0000E
F0000E
F0000E
F0000E
70000E
70001E
70001C
38001C
380038
1C0078
0E00F0
0783E0
03FF80
007C00
ENDCHAR
STARTCHAR 00BA
ENCODING 186
SWIDTH 690 0
DWIDTH 23 0
BBX 24 36 1 -1
BITMAP
000800
003600
002200
000200
000600
000C1E
001011
001001
000001
000006
000008
FE01FC
FC00F8
380070
380070
380030
700030
700030
700030
700030
700030
700030
700030
700030
700030
700030
700030
700030
700030
380070
380060
3C00E0
1E01C0
0F8780
07FF00
00F800
ENDCHAR
STARTCHAR 00BB
ENCODING 187
SWIDTH 690 0
DWIDTH 23 0
BBX 24 38 1 -1
BITMAP
000080
007900
00FF00
010C00
000000
000000
000000
00001E
000011
000001
000001
000006
000008
FE01FC
FC00F8
380070
380070
380030
700030
700030
700030
700030
700030
700030
700030
700030
700030
700030
700030
700030
700030
380070
380060
3C00E0
1E01C0
0F8780
07FF00
00F800
ENDCHAR
STARTCHAR 00BC
ENCODING 188
SWIDTH 750 0
DWIDTH 25 0
BBX 23 33 1 -1
BITMAP
01C000
01E000
007000
003800
000C00
000600
000000
003800
01FF80
07C3E0
0F00F0
1C0078
3C0038
38001C
70001C
70001E
70000E
F0000E
F0000E
F0000E
F0000E
F0000E
F0000E
70000E
70001E
70001C
38001C
380038
1C0078
0E00F0
0783E0
03FF80
007C00
ENDCHAR
STARTCHAR 00BD
ENCODING 189
SWIDTH 750 0
DWIDTH 25 0
BBX 23 35 1 -1
BITMAP
001C00
002200
002200
000200
000600
000C00
001000
000000
000000
003800
01FF80
07C3E0
0F00F0
1C0078
3C0038
38001C
70001C
70001E
70000E
F0000E
F0000E
F0000E
F0000E
F0000E
F0000E
70000E
70001E
70001C
38001C
380038
1C0078
0E00F0
0783E0
03FF80
007C00
ENDCHAR
STARTCHAR 00BE
ENCODING 190
SWIDTH 750 0
DWIDTH 25 0
BBX 23 32 1 -1
BITMAP
006100
00FF00
019E00
010000
000000
000000
003800
01FF80
07C3E0
0F00F0
1C0078
3C0038
38001C
70001C
70001E
70000E
F0000E
F0000E
F0000E
F0000E
F0000E
F0000E
70000E
70001E
70001C
38001C
380038
1C0078
0E00F0
0783E0
03FF80
007C00
ENDCHAR
STARTCHAR 00BF
ENCODING 191
SWIDTH 690 0
DWIDTH 23 0
BBX 24 36 1 -6
BITMAP
00001E
000011
000001
000001
000006
000008
FE01FC
FC00F8
380070
380070
380030
700030
700030
700030
700030
700030
700030
700030
700030
700030
700030
700030
700030
700030
380070
380060
3C00E0
1E01C0
0F8780
07FF00
00F800
000000
007000
007000
007000
002000
ENDCHAR
STARTCHAR 00C0
ENCODING 192
SWIDTH 630 0
DWIDTH 21 0
BBX 22 36 0 0
BITMAP
600000
700000
380000
1C0000
063000
037800
00FC00
00CC00
010200
020100
000000
000000
003000
007800
007800
00DC00
00DC00
018E00
018E00
030F00
030700
070700
060380
060380
0C03C0
0C01C0
1FFFC0
1FFFE0
1800E0
3800E0
300070
300070
700070
700078
F800FC
FC00FC
ENDCHAR
STARTCHAR 00C1
ENCODING 193
SWIDTH 630 0
DWIDTH 21 0
BBX 22 32 0 0
BITMAP
000700
000E00
001C00
003800
006000
008000
000000
000000
003000
007800
007800
00DC00
00DC00
018E00
018E00
030F00
030700
070700
060380
060380
0C03C0
0C01C0
1FFFC0
1FFFE0
1800E0
3800E0
300070
300070
700070
700078
F800FC
FC00FC
ENDCHAR
STARTCHAR 00C2
ENCODING 194
SWIDTH 630 0
DWIDTH 21 0
BBX 22 32 0 0
BITMAP
003000
007800
00FC00
00CC00
010200
020100
000000
000000
003000
007800
007800
00DC00
00DC00
018E00
018E00
030F00
030700
070700
060380
060380
0C03C0
0C01C0
1FFFC0
1FFFE0
1800E0
3800E0
300070
300070
700070
700078
F800FC
FC00FC
ENDCHAR
STARTCHAR 00C3
ENCODING 195
SWIDTH 630 0
DWIDTH 21 0
BBX 22 36 0 0
BITMAP
00000C
00001C
000038
000060
0030C0
007900
00FC00
00CC00
010200
020100
000000
000000
003000
007800
007800
00DC00
00DC00
018E00
018E00
030F00
030700
070700
060380
060380
0C03C0
0C01C0
1FFFC0
1FFFE0
1800E0
3800E0
300070
300070
700070
700078
F800FC
FC00FC
ENDCHAR
STARTCHAR 00C4
ENCODING 196
SWIDTH 630 0
DWIDTH 21 0
BBX 22 38 0 0
BITMAP
000180
000240
000220
000020
000040
000080
003100
007900
00FC00
00CC00
010200
020100
000000
000000
003000
007800
007800
00DC00
00DC00
018E00
018E00
030F00
030700
070700
060380
060380
0C03C0
0C01C0
1FFFC0
1FFFE0
1800E0
3800E0
300070
300070
700070
700078
F800FC
FC00FC
ENDCHAR
STARTCHAR 00C5
ENCODING 197
SWIDTH 630 0
DWIDTH 21 0
BBX 22 36 0 0
BITMAP
00E200
01FE00
013C00
020000
003000
007800
00FC00
00CC00
010200
020100
000000
000000
003000
007800
007800
00DC00
00DC00
018E00
018E00
030F00
030700
070700
060380
060380
0C03C0
0C01C0
1FFFC0
1FFFE0
1800E0
3800E0
300070
300070
700070
700078
F800FC
FC00FC
ENDCHAR
STARTCHAR 00C6
ENCODING 198
SWIDTH 630 0
DWIDTH 21 0
BBX 22 37 0 -5
BITMAP
003000
007800
00FC00
00CC00
010200
020100
000000
000000
003000
007800
007800
00DC00
00DC00
018E00
018E00
030F00
030700
070700
060380
060380
0C03C0
0C01C0
1FFFC0
1FFFE0
1800E0
3800E0
300070
300070
700070
700078
F800FC
FC00FC
000000
000000
00E000
00F000
006000
ENDCHAR
STARTCHAR 00C7
ENCODING 199
SWIDTH 720 0
DWIDTH 24 0
BBX 23 24 0 0
BITMAP
7FFE00
3FFF80
1C03E0
1C00F0
1C0078
1C003C
1C001C
1C001C
1C001E
1C000E
FFF00E
FFF00E
1C000E
1C000E
1C001E
1C001E
1C001C
1C001C
1C0038
1C0078
1C00F0
1E03E0
3FFF80
7FFC00
ENDCHAR
STARTCHAR 00C8
ENCODING 200
SWIDTH 600 0
DWIDTH 20 0
BBX 19 34 1 0
BITMAP
007000
009000
000800
000800
001000
006000
004000
004000
000000
000000
FFFFC0
7FFFC0
3801C0
380040
380000
380000
380000
380000
380000
380200
3FFF00
3FFF00
380200
380000
380000
380000
380000
380000
380000
380020
380060
3801E0
7FFFE0
FFFFC0
ENDCHAR
STARTCHAR 00C9
ENCODING 201
SWIDTH 600 0
DWIDTH 20 0
BBX 19 32 1 0
BITMAP
000C00
001C00
003800
006000
00C000
010000
000000
000000
FFFFC0
7FFFC0
3801C0
380040
380000
380000
380000
380000
380000
380200
3FFF00
3FFF00
380200
380000
380000
380000
380000
380000
380000
380020
380060
3801E0
7FFFE0
FFFFC0
ENDCHAR
STARTCHAR 00CA
ENCODING 202
SWIDTH 600 0
DWIDTH 20 0
BBX 19 32 1 0
BITMAP
00E000
00F000
01B800
031800
020C00
040200
000000
000000
FFFFC0
7FFFC0
3801C0
380040
380000
380000
380000
380000
380000
380200
3FFF00
3FFF00
380200
380000
380000
380000
380000
380000
380000
380020
380060
3801E0
7FFFE0
FFFFC0
ENDCHAR
STARTCHAR 00CB
ENCODING 203
SWIDTH 600 0
DWIDTH 20 0
BBX 19 29 1 -5
BITMAP
FFFFC0
7FFFC0
3801C0
380040
380000
380000
380000
380000
380000
380200
3FFF00
3FFF00
380200
380000
380000
380000
380000
380000
380000
380020
380060
3801E0
7FFFE0
FFFFC0
000000
000000
01C000
01E000
00C000
ENDCHAR
STARTCHAR 00CC
ENCODING 204
SWIDTH 270 0
DWIDTH 9 0
BBX 7 34 1 0
BITMAP
3C
24
02
04
0C
10
10
00
00
00
FE
7C
38
38
38
38
38
38
38
38
38
38
38
38
38
38
38
38
38
38
38
38
7C
FE
ENDCHAR
STARTCHAR 00CD
ENCODING 205
SWIDTH 600 0
DWIDTH 20 0
BBX 19 36 1 0
BITMAP
01C400
03FC00
027800
040000
00E000
00F000
01B800
031800
020C00
040200
000000
000000
FFFFC0
7FFFC0
3801C0
380040
380000
380000
380000
380000
380000
380200
3FFF00
3FFF00
380200
380000
380000
380000
380000
380000
380000
380020
380060
3801E0
7FFFE0
FFFFC0
ENDCHAR
STARTCHAR 00CE
ENCODING 206
SWIDTH 270 0
DWIDTH 9 0
BBX 7 30 1 -6
BITMAP
FE
7C
38
38
38
38
38
38
38
38
38
38
38
38
38
38
38
38
38
38
38
38
7C
FE
00
00
18
38
38
18
ENDCHAR
STARTCHAR 00CF
ENCODING 207
SWIDTH 630 0
DWIDTH 21 0
BBX 23 31 -1 0
BITMAP
001040
007F80
004F80
000000
000000
000000
000000
FE007E
7E003C
3C0038
1C0038
0E0030
0F0060
070060
0380C0
03C180
01C180
00E300
00F600
007E00
003C00
003800
003800
003800
003800
003800
003800
003800
003C00
007E00
007E00
ENDCHAR
STARTCHAR 00D0
ENCODING 208
SWIDTH 690 0
DWIDTH 23 0
BBX 24 31 1 -1
BITMAP
00001E
000011
000001
000001
000006
000008
FE01FC
FC00F8
380070
380070
380030
700030
700030
700030
700030
700030
700030
700030
700030
700030
700030
700030
700030
700030
380070
380060
3C00E0
1E01C0
0F8780
07FF00
00F800
ENDCHAR
STARTCHAR 00D1
ENCODING 209
SWIDTH 690 0
DWIDTH 23 0
BBX 22 35 1 -1
BITMAP
003C00
002400
000200
000600
000400
001800
001000
000000
000000
000000
FE01FC
FC00F8
380070
380070
380030
700030
700030
700030
700030
700030
700030
700030
700030
700030
700030
700030
700030
700030
380070
380060
3C00E0
1E01C0
0F8780
07FF00
00F800
ENDCHAR
STARTCHAR 00D2
ENCODING 210
SWIDTH 750 0
DWIDTH 25 0
BBX 23 37 1 -1
BITMAP
600000
700000
380000
0C0000
063800
013C00
006E00
00C600
008300
010080
000000
003800
01FF80
07C3E0
0F00F0
1C0078
3C0038
38001C
70001C
70001E
70000E
F0000E
F0000E
F0000E
F0000E
F0000E
F0000E
70000E
70001E
70001C
38001C
380038
1C0078
0E00F0
0783E0
03FF80
007C00
ENDCHAR
STARTCHAR 00D3
ENCODING 211
SWIDTH 750 0
DWIDTH 25 0
BBX 23 37 1 -1
BITMAP
00000C
00001C
00003C
000070
0038C0
003D80
006E00
00C600
008300
010080
000000
003800
01FF80
07C3E0
0F00F0
1C0078
3C0038
38001C
70001C
70001E
70000E
F0000E
F0000E
F0000E
F0000E
F0000E
F0000E
70000E
70001E
70001C
38001C
380038
1C0078
0E00F0
0783E0
03FF80
007C00
ENDCHAR
STARTCHAR 00D4
ENCODING 212
SWIDTH 750 0
DWIDTH 25 0
BBX 23 33 1 -1
BITMAP
003800
003C00
006E00
00C600
008300
010080
000000
003800
01FF80
07C3E0
0F00F0
1C0078
3C0038
38001C
70001C
70001E
70000E
F0000E
F0000E
F0000E
F0000E
F0000E
F0000E
70000E
70001E
70001C
38001C
380038
1C0078
0E00F0
0783E0
03FF80
007C00
ENDCHAR
STARTCHAR 00D5
ENCODING 213
SWIDTH 750 0
DWIDTH 25 0
BBX 23 35 1 -1
BITMAP
001C00
002200
002200
000200
000600
000C00
001000
000000
000000
003800
01FF80
07C3E0
0F00F0
1C0078
3C0038
38001C
70001C
70001E
70000E
F0000E
F0000E
F0000E
F0000E
F0000E
F0000E
70000E
70001E
70001C
38001C
380038
1C0078
0E00F0
0783E0
03FF80
007C00
ENDCHAR
STARTCHAR 00D6
ENCODING 214
SWIDTH 750 0
DWIDTH 25 0
BBX 23 31 1 -1
BITMAP
000038
000024
000004
000004
000018
003820
01FFC0
07C3E0
0F00F0
1C0078
3C0038
38001C
70001C
70001E
70000E
F0000E
F0000E
F0000E
F0000E
F0000E
F0000E
70000E
70001E
70001C
38001C
380038
1C0078
0E00F0
0783E0
03FF80
007C00
ENDCHAR
STARTCHAR 00D7
ENCODING 215
SWIDTH 600 0
DWIDTH 20 0
BBX 19 32 1 0
BITMAP
070000
078000
01C000
00E000
003000
001800
000000
000000
FFFFC0
7FFFC0
3801C0
380040
380000
380000
380000
380000
380000
380200
3FFF00
3FFF00
380200
380000
380000
380000
380000
380000
380000
380020
380060
3801E0
7FFFE0
FFFFC0
ENDCHAR
STARTCHAR 00D8
ENCODING 216
SWIDTH 690 0
DWIDTH 23 0
BBX 24 35 1 -1
BITMAP
038000
03C000
01E000
006000
00101E
000811
000001
000001
000006
000008
FE01FC
FC00F8
380070
380070
380030
700030
700030
700030
700030
700030
700030
700030
700030
700030
700030
700030
700030
700030
380070
380060
3C00E0
1E01C0
0F8780
07FF00
00F800
ENDCHAR
STARTCHAR 00D9
ENCODING 217
SWIDTH 690 0
DWIDTH 23 0
BBX 24 35 1 0
BITMAP
000380
000780
000600
000C00
00101E
002011
000001
000001
000006
000008
FE01FC
FC00F8
380070
380070
380030
700030
700030
700030
700030
700030
700030
700030
700030
700030
700030
700030
700030
700030
380070
380060
3C00E0
1E01C0
0F8780
07FF00
00F800
ENDCHAR
STARTCHAR 00DA
ENCODING 218
SWIDTH 690 0
DWIDTH 23 0
BBX 22 33 1 -1
BITMAP
000700
000F00
001C00
003800
006000
00C000
000000
000000
FE01FC
FC00F8
380070
380070
380030
700030
700030
700030
700030
700030
700030
700030
700030
700030
700030
700030
700030
700030
380070
380060
3C00E0
1E01C0
0F8780
07FF00
00F800
ENDCHAR
STARTCHAR 00DB
ENCODING 219
SWIDTH 690 0
DWIDTH 23 0
BBX 22 32 1 -1
BITMAP
000080
007F80
00FF00
008000
000000
000000
000000
FE01FC
FC00F8
380070
380070
380030
700030
700030
700030
700030
700030
700030
700030
700030
700030
700030
700030
700030
700030
380070
380060
3C00E0
1E01C0
0F8780
07FF00
00F800
ENDCHAR
STARTCHAR 00DC
ENCODING 220
SWIDTH 690 0
DWIDTH 23 0
BBX 24 31 1 -1
BITMAP
00001E
000011
000001
000001
000006
000008
FE01FC
FC00F8
380070
380070
380030
700030
700030
700030
700030
700030
700030
700030
700030
700030
700030
700030
700030
700030
380070
380060
3C00E0
1E01C0
0F8780
07FF00
00F800
ENDCHAR
STARTCHAR 00DD
ENCODING 221
SWIDTH 630 0
DWIDTH 21 0
BBX 23 32 -1 0
BITMAP
000300
000700
000E00
001C00
003000
004000
000000
000000
FE007E
7E003C
3C0038
1C0038
0E0030
0F0060
070060
0380C0
03C180
01C180
00E300
00F600
007E00
003C00
003800
003800
003800
003800
003800
003800
003800
003C00
007E00
007E00
ENDCHAR
STARTCHAR 00DE
ENCODING 222
SWIDTH 600 0
DWIDTH 20 0
BBX 19 34 1 0
BITMAP
007000
009000
000800
000800
001000
006000
004000
004000
000000
000000
FFFFC0
7FFFC0
3801C0
380040
380000
380000
380000
380000
380000
380200
3FFF00
3FFF00
380200
380000
380000
380000
380000
380000
380000
380020
380060
3801E0
7FFFE0
FFFFC0
ENDCHAR
STARTCHAR 00DF
ENCODING 223
SWIDTH 660 0
DWIDTH 22 0
BBX 20 25 1 0
BITMAP
006000
03FE00
0E0780
1C03C0
3801C0
3801C0
3001C0
3001C0
3001C0
300380
300F00
31FC00
31FF00
3003C0
3000E0
300060
300070
318070
330070
330070
330070
3300E0
3381C0
F9FF80
F8FF00
ENDCHAR
STARTCHAR 00E0
ENCODING 224
SWIDTH 630 0
DWIDTH 21 0
BBX 22 32 0 0
BITMAP
038000
01C000
00E000
007000
001800
000400
000000
000000
003000
007800
007800
00DC00
00DC00
018E00
018E00
030F00
030700
070700
060380
060380
0C03C0
0C01C0
1FFFC0
1FFFE0
1800E0
3800E0
300070
300070
700070
700078
F800FC
FC00FC
ENDCHAR
STARTCHAR 00E1
ENCODING 225
SWIDTH 630 0
DWIDTH 21 0
BBX 22 32 0 0
BITMAP
000700
000E00
001C00
003800
006000
008000
000000
000000
003000
007800
007800
00DC00
00DC00
018E00
018E00
030F00
030700
070700
060380
060380
0C03C0
0C01C0
1FFFC0
1FFFE0
1800E0
3800E0
300070
300070
700070
700078
F800FC
FC00FC
ENDCHAR
STARTCHAR 00E2
ENCODING 226
SWIDTH 630 0
DWIDTH 21 0
BBX 22 32 0 0
BITMAP
003000
007800
00FC00
00CC00
010200
020100
000000
000000
003000
007800
007800
00DC00
00DC00
018E00
018E00
030F00
030700
070700
060380
060380
0C03C0
0C01C0
1FFFC0
1FFFE0
1800E0
3800E0
300070
300070
700070
700078
F800FC
FC00FC
ENDCHAR
STARTCHAR 00E3
ENCODING 227
SWIDTH 630 0
DWIDTH 21 0
BBX 22 31 0 0
BITMAP
006200
01FE00
013C00
020000
000000
000000
000000
003000
007800
007800
00DC00
00DC00
018E00
018E00
030F00
030700
070700
060380
060380
0C03C0
0C01C0
1FFFC0
1FFFE0
1800E0
3800E0
300070
300070
700070
700078
F800FC
FC00FC
ENDCHAR
STARTCHAR 00E4
ENCODING 228
SWIDTH 630 0
DWIDTH 21 0
BBX 22 34 0 0
BITMAP
003800
004800
000400
000400
000800
003000
002000
002000
000000
000000
003000
007800
007800
00DC00
00DC00
018E00
018E00
030F00
030700
070700
060380
060380
0C03C0
0C01C0
1FFFC0
1FFFE0
1800E0
3800E0
300070
300070
700070
700078
F800FC
FC00FC
ENDCHAR
STARTCHAR 00E5
ENCODING 229
SWIDTH 630 0
DWIDTH 21 0
BBX 22 29 0 -4
BITMAP
003000
007800
007800
00DC00
00DC00
018E00
018E00
030F00
030700
070700
060380
060380
0C03C0
0C01C0
1FFFC0
1FFFE0
1800E0
3800E0
300070
300070
700070
700078
F800FC
FC00FC
000000
000000
00E000
00F000
006000
ENDCHAR
STARTCHAR 00E6
ENCODING 230
SWIDTH 630 0
DWIDTH 21 0
BBX 22 30 0 0
BITMAP
020200
018C00
00F800
007000
000000
000000
003000
007800
007800
00DC00
00DC00
018E00
018E00
030F00
030700
070700
060380
060380
0C03C0
0C01C0
1FFFC0
1FFFE0
1800E0
3800E0
300070
300070
700070
700078
F800FC
FC00FC
ENDCHAR
STARTCHAR 00E7
ENCODING 231
SWIDTH 690 0
DWIDTH 23 0
BBX 21 32 1 -7
BITMAP
001E00
01FFC0
07C3F0
0F00F0
1E0070
3C0038
380018
780010
700000
700000
F00000
F00000
F00000
F00000
F00000
F00000
F00000
700000
780000
780008
3C0018
1E0038
1F0070
07F7E0
03FF80
007C00
001000
001E00
000700
000300
00C700
007E00
ENDCHAR
STARTCHAR 00E8
ENCODING 232
SWIDTH 600 0
DWIDTH 20 0
BBX 19 32 1 0
BITMAP
070000
078000
01C000
00E000
003000
001800
000000
000000
FFFFC0
7FFFC0
3801C0
380040
380000
380000
380000
380000
380000
380200
3FFF00
3FFF00
380200
380000
380000
380000
380000
380000
380000
380020
380060
3801E0
7FFFE0
FFFFC0
ENDCHAR
STARTCHAR 00E9
ENCODING 233
SWIDTH 600 0
DWIDTH 20 0
BBX 19 32 1 0
BITMAP
000C00
001C00
003800
006000
00C000
010000
000000
000000
FFFFC0
7FFFC0
3801C0
380040
380000
380000
380000
380000
380000
380200
3FFF00
3FFF00
380200
380000
380000
380000
380000
380000
380000
380020
380060
3801E0
7FFFE0
FFFFC0
ENDCHAR
STARTCHAR 00EA
ENCODING 234
SWIDTH 600 0
DWIDTH 20 0
BBX 19 32 1 0
BITMAP
00E000
00F000
01B800
031800
020C00
040200
000000
000000
FFFFC0
7FFFC0
3801C0
380040
380000
380000
380000
380000
380000
380200
3FFF00
3FFF00
380200
380000
380000
380000
380000
380000
380000
380020
380060
3801E0
7FFFE0
FFFFC0
ENDCHAR
STARTCHAR 00EB
ENCODING 235
SWIDTH 600 0
DWIDTH 20 0
BBX 19 31 1 0
BITMAP
000400
03C800
07F800
047000
000000
000000
000000
FFFFC0
7FFFC0
3801C0
380040
380000
380000
380000
380000
380000
380200
3FFF00
3FFF00
380200
380000
380000
380000
380000
380000
380000
380020
380060
3801E0
7FFFE0
FFFFC0
ENDCHAR
STARTCHAR 00EC
ENCODING 236
SWIDTH 270 0
DWIDTH 9 0
BBX 8 32 0 0
BITMAP
E0
F0
78
18
04
02
00
00
7F
3E
1C
1C
1C
1C
1C
1C
1C
1C
1C
1C
1C
1C
1C
1C
1C
1C
1C
1C
1C
1C
3E
7F
ENDCHAR
STARTCHAR 00ED
ENCODING 237
SWIDTH 270 0
DWIDTH 9 0
BBX 8 32 1 0
BITMAP
03
07
0E
18
30
40
00
00
FE
7C
38
38
38
38
38
38
38
38
38
38
38
38
38
38
38
38
38
38
38
38
7C
FE
ENDCHAR
STARTCHAR 00EE
ENCODING 238
SWIDTH 270 0
DWIDTH 9 0
BBX 9 32 0 0
BITMAP
1C00
1E00
3600
6300
4180
8080
0000
0000
7F00
3E00
1C00
1C00
1C00
1C00
1C00
1C00
1C00
1C00
1C00
1C00
1C00
1C00
1C00
1C00
1C00
1C00
1C00
1C00
1C00
1C00
3E00
7F00
ENDCHAR
STARTCHAR 00EF
ENCODING 239
SWIDTH 270 0
DWIDTH 9 0
BBX 9 31 0 0
BITMAP
0080
7980
FF00
8E00
0000
0000
0000
7F00
3E00
1C00
1C00
1C00
1C00
1C00
1C00
1C00
1C00
1C00
1C00
1C00
1C00
1C00
1C00
1C00
1C00
1C00
1C00
1C00
1C00
3E00
7F00
ENDCHAR
STARTCHAR 00F0
ENCODING 240
SWIDTH 630 0
DWIDTH 21 0
BBX 22 36 0 0
BITMAP
00E200
01FE00
013C00
020000
000000
000000
020200
018C00
00F800
007000
000000
000000
003000
007800
007800
00DC00
00DC00
018E00
018E00
030F00
030700
070700
060380
060380
0C03C0
0C01C0
1FFFC0
1FFFE0
1800E0
3800E0
300070
300070
700070
700078
F800FC
FC00FC
ENDCHAR
STARTCHAR 00F1
ENCODING 241
SWIDTH 720 0
DWIDTH 24 0
BBX 23 24 0 0
BITMAP
7FFE00
3FFF80
1C03E0
1C00F0
1C0078
1C003C
1C001C
1C001C
1C001E
1C000E
FFF00E
FFF00E
1C000E
1C000E
1C001E
1C001E
1C001C
1C001C
1C0038
1C0078
1C00F0
1E03E0
3FFF80
7FFC00
ENDCHAR
STARTCHAR 00F2
ENCODING 242
SWIDTH 750 0
DWIDTH 25 0
BBX 23 33 1 -1
BITMAP
01C000
01E000
007000
003800
000C00
000600
000000
003800
01FF80
07C3E0
0F00F0
1C0078
3C0038
38001C
70001C
70001E
70000E
F0000E
F0000E
F0000E
F0000E
F0000E
F0000E
70000E
70001E
70001C
38001C
380038
1C0078
0E00F0
0783E0
03FF80
007C00
ENDCHAR
STARTCHAR 00F3
ENCODING 243
SWIDTH 750 0
DWIDTH 25 0
BBX 23 33 1 -1
BITMAP
000300
000700
000E00
001800
003000
004000
000000
003800
01FF80
07C3E0
0F00F0
1C0078
3C0038
38001C
70001C
70001E
70000E
F0000E
F0000E
F0000E
F0000E
F0000E
F0000E
70000E
70001E
70001C
38001C
380038
1C0078
0E00F0
0783E0
03FF80
007C00
ENDCHAR
STARTCHAR 00F4
ENCODING 244
SWIDTH 750 0
DWIDTH 25 0
BBX 23 33 1 -1
BITMAP
003800
003C00
006E00
00C600
008300
010080
000000
003800
01FF80
07C3E0
0F00F0
1C0078
3C0038
38001C
70001C
70001E
70000E
F0000E
F0000E
F0000E
F0000E
F0000E
F0000E
70000E
70001E
70001C
38001C
380038
1C0078
0E00F0
0783E0
03FF80
007C00
ENDCHAR
STARTCHAR 00F5
ENCODING 245
SWIDTH 750 0
DWIDTH 25 0
BBX 23 32 1 -1
BITMAP
006100
00FF00
019E00
010000
000000
000000
003800
01FF80
07C3E0
0F00F0
1C0078
3C0038
38001C
70001C
70001E
70000E
F0000E
F0000E
F0000E
F0000E
F0000E
F0000E
70000E
70001E
70001C
38001C
380038
1C0078
0E00F0
0783E0
03FF80
007C00
ENDCHAR
STARTCHAR 00F6
ENCODING 246
SWIDTH 750 0
DWIDTH 25 0
BBX 23 32 1 -1
BITMAP
000200
01C700
01E700
004200
000000
000000
003800
01FF80
07C3E0
0F00F0
1C0078
3C0038
38001C
70001C
70001E
70000E
F0000E
F0000E
F0000E
F0000E
F0000E
F0000E
70000E
70001E
70001C
38001C
380038
1C0078
0E00F0
0783E0
03FF80
007C00
ENDCHAR
STARTCHAR 00F7
ENCODING 247
SWIDTH 750 0
DWIDTH 25 0
BBX 23 31 1 -1
BITMAP
000038
000024
000004
000004
000018
003820
01FFC0
07C3E0
0F00F0
1C0078
3C0038
38001C
70001C
70001E
70000E
F0000E
F0000E
F0000E
F0000E
F0000E
F0000E
70000E
70001E
70001C
38001C
380038
1C0078
0E00F0
0783E0
03FF80
007C00
ENDCHAR
STARTCHAR 00F8
ENCODING 248
SWIDTH 690 0
DWIDTH 23 0
BBX 22 30 1 -6
BITMAP
FE01FC
FC00F8
380070
380070
380030
700030
700030
700030
700030
700030
700030
700030
700030
700030
700030
700030
700030
700030
380070
380060
3C00E0
1E01C0
0F8780
07FF00
00F800
000000
002000
007000
007000
007000
ENDCHAR
STARTCHAR 00F9
ENCODING 249
SWIDTH 690 0
DWIDTH 23 0
BBX 22 33 1 -1
BITMAP
018000
01C000
00E000
003000
001800
000400
000000
000000
FE01FC
FC00F8
380070
380070
380030
700030
700030
700030
700030
700030
700030
700030
700030
700030
700030
700030
700030
700030
380070
380060
3C00E0
1E01C0
0F8780
07FF00
00F800
ENDCHAR
STARTCHAR 00FA
ENCODING 250
SWIDTH 690 0
DWIDTH 23 0
BBX 22 33 1 -1
BITMAP
000700
000F00
001C00
003800
006000
00C000
000000
000000
FE01FC
FC00F8
380070
380070
380030
700030
700030
700030
700030
700030
700030
700030
700030
700030
700030
700030
700030
700030
380070
380060
3C00E0
1E01C0
0F8780
07FF00
00F800
ENDCHAR
STARTCHAR 00FB
ENCODING 251
SWIDTH 690 0
DWIDTH 23 0
BBX 22 35 1 -1
BITMAP
003C00
002400
000200
000600
000400
001800
001000
000000
000000
000000
FE01FC
FC00F8
380070
380070
380030
700030
700030
700030
700030
700030
700030
700030
700030
700030
700030
700030
700030
700030
380070
380060
3C00E0
1E01C0
0F8780
07FF00
00F800
ENDCHAR
STARTCHAR 00FC
ENCODING 252
SWIDTH 690 0
DWIDTH 23 0
BBX 22 32 1 -1
BITMAP
008200
01C700
01CF00
008000
000000
000000
000000
FE01FC
FC00F8
380070
380070
380030
700030
700030
700030
700030
700030
700030
700030
700030
700030
700030
700030
700030
700030
380070
380060
3C00E0
1E01C0
0F8780
07FF00
00F800
ENDCHAR
STARTCHAR 00FD
ENCODING 253
SWIDTH 630 0
DWIDTH 21 0
BBX 23 34 -1 0
BITMAP
001C00
002400
000200
000200
000400
001800
001000
001000
000000
000000
FE007E
7E003C
3C0038
1C0038
0E0030
0F0060
070060
0380C0
03C180
01C180
00E300
00F600
007E00
003C00
003800
003800
003800
003800
003800
003800
003800
003C00
007E00
007E00
ENDCHAR
STARTCHAR 00FE
ENCODING 254
SWIDTH 600 0
DWIDTH 20 0
BBX 19 31 1 0
BITMAP
000400
03C800
07F800
047000
000000
000000
000000
FFFFC0
7FFFC0
3801C0
380040
380000
380000
380000
380000
380000
380200
3FFF00
3FFF00
380200
380000
380000
380000
380000
380000
380000
380020
380060
3801E0
7FFFE0
FFFFC0
ENDCHAR
STARTCHAR 00FF
ENCODING 255
SWIDTH 630 0
DWIDTH 21 0
BBX 23 32 -1 0
BITMAP
018000
01C000
01E000
007000
001800
000C00
000000
000000
FE007E
7E003C
3C0038
1C0038
0E0030
0F0060
070060
0380C0
03C180
01C180
00E300
00F600
007E00
003C00
003800
003800
003800
003800
003800
003800
003800
003C00
007E00
007E00
ENDCHAR
STARTCHAR 0106
ENCODING 262
SWIDTH 690 0
DWIDTH 23 0
BBX 0 0 0 0
BITMAP
ENDCHAR
STARTCHAR 0107
ENCODING 263
SWIDTH 420 0
DWIDTH 14 0
BBX 0 0 0 0
BITMAP
ENDCHAR
STARTCHAR 010C
ENCODING 268
SWIDTH 690 0
DWIDTH 23 0
BBX 0 0 0 0
BITMAP
ENDCHAR
STARTCHAR 010D
ENCODING 269
SWIDTH 420 0
DWIDTH 14 0
BBX 0 0 0 0
BITMAP
ENDCHAR
STARTCHAR 0111
ENCODING 273
SWIDTH 540 0
DWIDTH 18 0
BBX 0 0 0 0
BITMAP
ENDCHAR
STARTCHAR 011E
ENCODING 286
SWIDTH 750 0
DWIDTH 25 0
BBX 0 0 0 0
BITMAP
ENDCHAR
STARTCHAR 011F
ENCODING 287
SWIDTH 480 0
DWIDTH 16 0
BBX 0 0 0 0
BITMAP
ENDCHAR
STARTCHAR 0130
ENCODING 304
SWIDTH 270 0
DWIDTH 9 0
BBX 0 0 0 0
BITMAP
ENDCHAR
STARTCHAR 0131
ENCODING 305
SWIDTH 240 0
DWIDTH 8 0
BBX 0 0 0 0
BITMAP
ENDCHAR
STARTCHAR 0141
ENCODING 321
SWIDTH 570 0
DWIDTH 19 0
BBX 0 0 0 0
BITMAP
ENDCHAR
STARTCHAR 0142
ENCODING 322
SWIDTH 210 0
DWIDTH 7 0
BBX 0 0 0 0
BITMAP
ENDCHAR
STARTCHAR 0152
ENCODING 338
SWIDTH 600 0
DWIDTH 20 0
BBX 19 38 1 -6
BITMAP
00E000
00F000
01B800
031800
020C00
040200
000000
000000
FFFFC0
7FFFC0
3801C0
380040
380000
380000
380000
380000
380000
380200
3FFF00
3FFF00
380200
380000
380000
380000
380000
380000
380000
380020
380060
3801E0
7FFFE0
FFFFC0
000000
000000
006000
00F000
00F000
006000
ENDCHAR
STARTCHAR 0153
ENCODING 339
SWIDTH 630 0
DWIDTH 21 0
BBX 23 29 -1 -5
BITMAP
FE007E
7E003C
3C0038
1C0038
0E0030
0F0060
070060
0380C0
03C180
01C180
00E300
00F600
007E00
003C00
003800
003800
003800
003800
003800
003800
003800
003C00
007E00
007E00
000000
000000
001C00
003C00
001C00
ENDCHAR
STARTCHAR 015E
ENCODING 350
SWIDTH 570 0
DWIDTH 19 0
BBX 0 0 0 0
BITMAP
ENDCHAR
STARTCHAR 015F
ENCODING 351
SWIDTH 360 0
DWIDTH 12 0
BBX 0 0 0 0
BITMAP
ENDCHAR
STARTCHAR 0160
ENCODING 352
SWIDTH 600 0
DWIDTH 20 0
BBX 20 36 0 0
BITMAP
600000
F00000
380000
1C0000
067000
037800
00DC00
018C00
010600
020100
000000
000000
7FFFE0
3FFFE0
1C00E0
1C0020
1C0000
1C0000
1C0000
1C0000
1C0000
1C0100
1FFF80
1FFF80
1C0100
1C0000
1C0000
1C0000
1C0000
1C0000
1C0000
1C0010
1C0030
1C00F0
3FFFF0
7FFFE0
ENDCHAR
STARTCHAR 0161
ENCODING 353
SWIDTH 630 0
DWIDTH 21 0
BBX 23 32 -1 0
BITMAP
000300
000700
000E00
001C00
003000
004000
000000
000000
FE007E
7E003C
3C0038
1C0038
0E0030
0F0060
070060
0380C0
03C180
01C180
00E300
00F600
007E00
003C00
003800
003800
003800
003800
003800
003800
003800
003C00
007E00
007E00
ENDCHAR
STARTCHAR 0178
ENCODING 376
SWIDTH 750 0
DWIDTH 25 0
BBX 23 37 1 -1
BITMAP
001C00
002200
000200
000200
000400
000800
001038
000024
000004
000004
000018
003820
01FFC0
07C3E0
0F00F0
1C0078
3C0038
38001C
70001C
70001E
70000E
F0000E
F0000E
F0000E
F0000E
F0000E
F0000E
70000E
70001E
70001C
38001C
380038
1C0078
0E00F0
0783E0
03FF80
007C00
ENDCHAR
STARTCHAR 017D
ENCODING 381
SWIDTH 540 0
DWIDTH 18 0
BBX 0 0 0 0
BITMAP
ENDCHAR
STARTCHAR 017E
ENCODING 382
SWIDTH 360 0
DWIDTH 12 0
BBX 0 0 0 0
BITMAP
ENDCHAR
STARTCHAR 0192
ENCODING 402
SWIDTH 630 0
DWIDTH 21 0
BBX 22 36 0 0
BITMAP
00000C
00001C
000038
000060
0030C0
007900
00FC00
00CC00
010200
020100
000000
000000
003000
007800
007800
00DC00
00DC00
018E00
018E00
030F00
030700
070700
060380
060380
0C03C0
0C01C0
1FFFC0
1FFFE0
1800E0
3800E0
300070
300070
700070
700078
F800FC
FC00FC
ENDCHAR
STARTCHAR 02C6
ENCODING 710
SWIDTH 630 0
DWIDTH 21 0
BBX 22 30 0 0
BITMAP
020200
018C00
00F800
007000
000000
000000
003000
007800
007800
00DC00
00DC00
018E00
018E00
030F00
030700
070700
060380
060380
0C03C0
0C01C0
1FFFC0
1FFFE0
1800E0
3800E0
300070
300070
700070
700078
F800FC
FC00FC
ENDCHAR
STARTCHAR 02C7
ENCODING 711
SWIDTH 480 0
DWIDTH 16 0
BBX 0 0 0 0
BITMAP
ENDCHAR
STARTCHAR 02DA
ENCODING 730
SWIDTH 480 0
DWIDTH 16 0
BBX 0 0 0 0
BITMAP
ENDCHAR
STARTCHAR 02DB
ENCODING 731
SWIDTH 480 0
DWIDTH 16 0
BBX 0 0 0 0
BITMAP
ENDCHAR
STARTCHAR 02DC
ENCODING 732
SWIDTH 750 0
DWIDTH 25 0
BBX 23 38 1 -1
BITMAP
0000F0
000190
000010
000010
000030
003840
003C40
006E00
00C600
008300
010080
000000
003800
01FF80
07C3E0
0F00F0
1C0078
3C0038
38001C
70001C
70001E
70000E
F0000E
F0000E
F0000E
F0000E
F0000E
F0000E
70000E
70001E
70001C
38001C
380038
1C0078
0E00F0
0783E0
03FF80
007C00
ENDCHAR
STARTCHAR 03A9
ENCODING 937
SWIDTH 750 0
DWIDTH 25 0
BBX 0 0 0 0
BITMAP
ENDCHAR
STARTCHAR 03C0
ENCODING 960
SWIDTH 660 0
DWIDTH 22 0
BBX 0 0 0 0
BITMAP
ENDCHAR
STARTCHAR 2013
ENCODING 8211
SWIDTH 750 0
DWIDTH 25 0
BBX 23 37 1 -1
BITMAP
00000C
00001C
00003C
000070
0038C0
003D80
006E00
00C600
008300
010080
000000
003800
01FF80
07C3E0
0F00F0
1C0078
3C0038
38001C
70001C
70001E
70000E
F0000E
F0000E
F0000E
F0000E
F0000E
F0000E
70000E
70001E
70001C
38001C
380038
1C0078
0E00F0
0783E0
03FF80
007C00
ENDCHAR
STARTCHAR 2014
ENCODING 8212
SWIDTH 750 0
DWIDTH 25 0
BBX 23 37 1 -1
BITMAP
600000
700000
380000
0C0000
063800
013C00
006E00
00C600
008300
010080
000000
003800
01FF80
07C3E0
0F00F0
1C0078
3C0038
38001C
70001C
70001E
70000E
F0000E
F0000E
F0000E
F0000E
F0000E
F0000E
70000E
70001E
70001C
38001C
380038
1C0078
0E00F0
0783E0
03FF80
007C00
ENDCHAR
STARTCHAR 2018
ENCODING 8216
SWIDTH 270 0
DWIDTH 9 0
BBX 4 9 3 16
BITMAP
10
20
40
40
C0
C0
F0
F0
70
ENDCHAR
STARTCHAR 2019
ENCODING 8217
SWIDTH 270 0
DWIDTH 9 0
BBX 4 9 2 16
BITMAP
60
F0
F0
F0
10
30
20
60
C0
ENDCHAR
STARTCHAR 201A
ENCODING 8218
SWIDTH 630 0
DWIDTH 21 0
BBX 22 31 0 0
BITMAP
006200
01FE00
013C00
020000
000000
000000
000000
003000
007800
007800
00DC00
00DC00
018E00
018E00
030F00
030700
070700
060380
060380
0C03C0
0C01C0
1FFFC0
1FFFE0
1800E0
3800E0
300070
300070
700070
700078
F800FC
FC00FC
ENDCHAR
STARTCHAR 201C
ENCODING 8220
SWIDTH 600 0
DWIDTH 20 0
BBX 20 36 0 0
BITMAP
600000
F00000
380000
1C0000
067000
037800
00DC00
018C00
010600
020100
000000
000000
7FFFE0
3FFFE0
1C00E0
1C0020
1C0000
1C0000
1C0000
1C0000
1C0000
1C0100
1FFF80
1FFF80
1C0100
1C0000
1C0000
1C0000
1C0000
1C0000
1C0000
1C0010
1C0030
1C00F0
3FFFF0
7FFFE0
ENDCHAR
STARTCHAR 201D
ENCODING 8221
SWIDTH 600 0
DWIDTH 20 0
BBX 19 38 1 0
BITMAP
000100
0006C0
000440
000040
0000C0
000180
00E200
00F000
01B800
031800
020C00
040200
000000
000000
FFFFC0
7FFFC0
3801C0
380040
380000
380000
380000
380000
380000
380200
3FFF00
3FFF00
380200
380000
380000
380000
380000
380000
380000
380020
380060
3801E0
7FFFE0
FFFFC0
ENDCHAR
STARTCHAR 201E
ENCODING 8222
SWIDTH 630 0
DWIDTH 21 0
BBX 22 36 0 0
BITMAP
600000
700000
380000
1C0000
063000
037800
00FC00
00CC00
010200
020100
000000
000000
003000
007800
007800
00DC00
00DC00
018E00
018E00
030F00
030700
070700
060380
060380
0C03C0
0C01C0
1FFFC0
1FFFE0
1800E0
3800E0
300070
300070
700070
700078
F800FC
FC00FC
ENDCHAR
STARTCHAR 2020
ENCODING 8224
SWIDTH 750 0
DWIDTH 25 0
BBX 23 31 1 -6
BITMAP
003800
01FF80
07C3E0
0F00F0
1C0078
3C0038
38001C
70001C
70001E
70000E
F0000E
F0000E
F0000E
F0000E
F0000E
F0000E
70000E
70001E
70001C
38001C
380038
1C0078
0E00F0
0783E0
03FF80
007C00
000000
001800
003C00
003C00
001800
ENDCHAR
STARTCHAR 2021
ENCODING 8225
SWIDTH 750 0
DWIDTH 25 0
BBX 23 37 1 -1
BITMAP
007100
00FF00
019E00
010000
003800
003C00
006E00
00C600
008300
010080
000000
003800
01FF80
07C3E0
0F00F0
1C0078
3C0038
38001C
70001C
70001E
70000E
F0000E
F0000E
F0000E
F0000E
F0000E
F0000E
70000E
70001E
70001C
38001C
380038
1C0078
0E00F0
0783E0
03FF80
007C00
ENDCHAR
STARTCHAR 2022
ENCODING 8226
SWIDTH 600 0
DWIDTH 20 0
BBX 19 36 1 0
BITMAP
01C400
03FC00
027800
040000
00E000
00F000
01B800
031800
020C00
040200
000000
000000
FFFFC0
7FFFC0
3801C0
380040
380000
380000
380000
380000
380000
380200
3FFF00
3FFF00
380200
380000
380000
380000
380000
380000
380000
380020
380060
3801E0
7FFFE0
FFFFC0
ENDCHAR
STARTCHAR 2026
ENCODING 8230
SWIDTH 630 0
DWIDTH 21 0
BBX 22 38 0 0
BITMAP
000180
000240
000220
000020
000040
000080
003100
007900
00FC00
00CC00
010200
020100
000000
000000
003000
007800
007800
00DC00
00DC00
018E00
018E00
030F00
030700
070700
060380
060380
0C03C0
0C01C0
1FFFC0
1FFFE0
1800E0
3800E0
300070
300070
700070
700078
F800FC
FC00FC
ENDCHAR
STARTCHAR 2030
ENCODING 8240
SWIDTH 600 0
DWIDTH 20 0
BBX 20 36 1 0
BITMAP
000030
000070
0000E0
000180
00E300
00F400
01B800
031800
020C00
040200
000000
000000
FFFFC0
7FFFC0
3801C0
380040
380000
380000
380000
380000
380000
380200
3FFF00
3FFF00
380200
380000
380000
380000
380000
380000
380000
380020
380060
3801E0
7FFFE0
FFFFC0
ENDCHAR
STARTCHAR 2039
ENCODING 8249
SWIDTH 600 0
DWIDTH 20 0
BBX 19 38 1 0
BITMAP
000100
0006C0
000440
000040
0000C0
000180
00E200
00F000
01B800
031800
020C00
040200
000000
000000
FFFFC0
7FFFC0
3801C0
380040
380000
380000
380000
380000
380000
380200
3FFF00
3FFF00
380200
380000
380000
380000
380000
380000
380000
380020
380060
3801E0
7FFFE0
FFFFC0
ENDCHAR
STARTCHAR 203A
ENCODING 8250
SWIDTH 630 0
DWIDTH 21 0
BBX 23 34 -1 0
BITMAP
001C00
002400
000200
000200
000400
001800
001000
001000
000000
000000
FE007E
7E003C
3C0038
1C0038
0E0030
0F0060
070060
0380C0
03C180
01C180
00E300
00F600
007E00
003C00
003800
003800
003800
003800
003800
003800
003800
003C00
007E00
007E00
ENDCHAR
STARTCHAR 20A3
ENCODING 8355
SWIDTH 870 0
DWIDTH 29 0
BBX 0 0 0 0
BITMAP
ENDCHAR
STARTCHAR 2122
ENCODING 8482
SWIDTH 750 0
DWIDTH 25 0
BBX 23 37 1 -1
BITMAP
007100
00FF00
019E00
010000
003800
003C00
006E00
00C600
008300
010080
000000
003800
01FF80
07C3E0
0F00F0
1C0078
3C0038
38001C
70001C
70001E
70000E
F0000E
F0000E
F0000E
F0000E
F0000E
F0000E
70000E
70001E
70001C
38001C
380038
1C0078
0E00F0
0783E0
03FF80
007C00
ENDCHAR
STARTCHAR 2202
ENCODING 8706
SWIDTH 480 0
DWIDTH 16 0
BBX 0 0 0 0
BITMAP
ENDCHAR
STARTCHAR 2206
ENCODING 8710
SWIDTH 570 0
DWIDTH 19 0
BBX 0 0 0 0
BITMAP
ENDCHAR
STARTCHAR 220F
ENCODING 8719
SWIDTH 750 0
DWIDTH 25 0
BBX 0 0 0 0
BITMAP
ENDCHAR
STARTCHAR 2211
ENCODING 8721
SWIDTH 690 0
DWIDTH 23 0
BBX 0 0 0 0
BITMAP
ENDCHAR
STARTCHAR 2212
ENCODING 8722
SWIDTH 810 0
DWIDTH 27 0
BBX 0 0 0 0
BITMAP
ENDCHAR
STARTCHAR 2215
ENCODING 8725
SWIDTH 150 0
DWIDTH 5 0
BBX 0 0 0 0
BITMAP
ENDCHAR
STARTCHAR 2219
ENCODING 8729
SWIDTH 270 0
DWIDTH 9 0
BBX 7 34 1 0
BITMAP
3C
24
02
04
0C
10
10
00
00
00
FE
7C
38
38
38
38
38
38
38
38
38
38
38
38
38
38
38
38
38
38
38
38
7C
FE
ENDCHAR
STARTCHAR 221A
ENCODING 8730
SWIDTH 600 0
DWIDTH 20 0
BBX 0 0 0 0
BITMAP
ENDCHAR
STARTCHAR 221E
ENCODING 8734
SWIDTH 810 0
DWIDTH 27 0
BBX 0 0 0 0
BITMAP
ENDCHAR
STARTCHAR 222B
ENCODING 8747
SWIDTH 480 0
DWIDTH 16 0
BBX 0 0 0 0
BITMAP
ENDCHAR
STARTCHAR 2248
ENCODING 8776
SWIDTH 810 0
DWIDTH 27 0
BBX 0 0 0 0
BITMAP
ENDCHAR
STARTCHAR 2260
ENCODING 8800
SWIDTH 810 0
DWIDTH 27 0
BBX 0 0 0 0
BITMAP
ENDCHAR
STARTCHAR 2264
ENCODING 8804
SWIDTH 810 0
DWIDTH 27 0
BBX 0 0 0 0
BITMAP
ENDCHAR
STARTCHAR 2265
ENCODING 8805
SWIDTH 810 0
DWIDTH 27 0
BBX 0 0 0 0
BITMAP
ENDCHAR
STARTCHAR 25CA
ENCODING 9674
SWIDTH 480 0
DWIDTH 16 0
BBX 0 0 0 0
BITMAP
ENDCHAR
STARTCHAR F000
ENCODING 61440
SWIDTH 780 0
DWIDTH 26 0
BBX 0 0 0 0
BITMAP
ENDCHAR
STARTCHAR F001
ENCODING 61441
SWIDTH 510 0
DWIDTH 17 0
BBX 0 0 0 0
BITMAP
ENDCHAR
STARTCHAR F002
ENCODING 61442
SWIDTH 510 0
DWIDTH 17 0
BBX 0 0 0 0
BITMAP
ENDCHAR
ENDFONT
